<svg width="238" height="238" viewBox="0 0 238 238" fill="none"
    xmlns="http://www.w3.org/2000/svg">
    <rect x="0.200195" y="0.599976" width="237.3" height="237.3" rx="12" fill="#443E3E"/>
    <path d="M68.7597 113.25V101.614H75.7369V102.864H70.1688V106.795H75.2142V108.045H70.1688V113.25H68.7597ZM80.5367 113.455C79.9836 113.455 79.4817 113.35 79.031 113.142C78.5802 112.93 78.2223 112.625 77.9571 112.227C77.692 111.826 77.5594 111.341 77.5594 110.773C77.5594 110.273 77.6579 109.867 77.8548 109.557C78.0518 109.242 78.3151 108.996 78.6446 108.818C78.9742 108.64 79.3378 108.508 79.7355 108.42C80.137 108.33 80.5405 108.258 80.9458 108.205C81.4761 108.136 81.906 108.085 82.2355 108.051C82.5689 108.013 82.8113 107.951 82.9628 107.864C83.1181 107.777 83.1958 107.625 83.1958 107.409V107.364C83.1958 106.803 83.0423 106.367 82.7355 106.057C82.4325 105.746 81.9723 105.591 81.3548 105.591C80.7147 105.591 80.2128 105.731 79.8492 106.011C79.4855 106.292 79.2298 106.591 79.0821 106.909L77.8094 106.455C78.0367 105.924 78.3397 105.511 78.7185 105.216C79.1011 104.917 79.5177 104.708 79.9685 104.591C80.423 104.47 80.87 104.409 81.3094 104.409C81.5897 104.409 81.9117 104.443 82.2753 104.511C82.6427 104.576 82.9969 104.71 83.3378 104.915C83.6825 105.119 83.9685 105.428 84.1958 105.841C84.423 106.254 84.5367 106.807 84.5367 107.5V113.25H83.1958V112.068H83.1276C83.0367 112.258 82.8852 112.46 82.673 112.676C82.4609 112.892 82.1787 113.076 81.8264 113.227C81.4742 113.379 81.0442 113.455 80.5367 113.455ZM80.7412 112.25C81.2715 112.25 81.7185 112.146 82.0821 111.938C82.4495 111.729 82.7261 111.46 82.9117 111.131C83.1011 110.801 83.1958 110.455 83.1958 110.091V108.864C83.1389 108.932 83.0139 108.994 82.8208 109.051C82.6314 109.104 82.4117 109.152 82.1617 109.193C81.9155 109.231 81.6749 109.265 81.4401 109.295C81.209 109.322 81.0215 109.345 80.8776 109.364C80.5291 109.409 80.2033 109.483 79.9003 109.585C79.6011 109.684 79.3586 109.833 79.173 110.034C78.9912 110.231 78.9003 110.5 78.9003 110.841C78.9003 111.307 79.0727 111.659 79.4173 111.898C79.7658 112.133 80.2071 112.25 80.7412 112.25ZM93.1659 106.477L91.9614 106.818C91.8856 106.617 91.7739 106.422 91.6262 106.233C91.4822 106.04 91.2852 105.881 91.0352 105.756C90.7852 105.631 90.4652 105.568 90.075 105.568C89.5409 105.568 89.0959 105.691 88.7398 105.938C88.3875 106.18 88.2114 106.489 88.2114 106.864C88.2114 107.197 88.3326 107.46 88.575 107.653C88.8174 107.847 89.1962 108.008 89.7114 108.136L91.0068 108.455C91.7871 108.644 92.3686 108.934 92.7512 109.324C93.1337 109.71 93.325 110.208 93.325 110.818C93.325 111.318 93.1811 111.765 92.8932 112.159C92.6091 112.553 92.2114 112.864 91.7 113.091C91.1887 113.318 90.594 113.432 89.9159 113.432C89.0258 113.432 88.289 113.239 87.7057 112.852C87.1224 112.466 86.753 111.902 86.5977 111.159L87.8705 110.841C87.9917 111.311 88.2209 111.663 88.558 111.898C88.8989 112.133 89.344 112.25 89.8932 112.25C90.5182 112.25 91.0144 112.117 91.3818 111.852C91.753 111.583 91.9387 111.261 91.9387 110.886C91.9387 110.583 91.8326 110.33 91.6205 110.125C91.4084 109.917 91.0826 109.761 90.6432 109.659L89.1887 109.318C88.3894 109.129 87.8023 108.835 87.4273 108.438C87.0561 108.036 86.8705 107.534 86.8705 106.932C86.8705 106.439 87.0087 106.004 87.2852 105.625C87.5655 105.246 87.9462 104.949 88.4273 104.733C88.9121 104.517 89.4614 104.409 90.075 104.409C90.9387 104.409 91.6167 104.598 92.1091 104.977C92.6053 105.356 92.9576 105.856 93.1659 106.477ZM96.6844 108V113.25H95.3435V101.614H96.6844V105.886H96.798C97.0026 105.436 97.3094 105.078 97.7185 104.812C98.1314 104.544 98.6806 104.409 99.3662 104.409C99.9609 104.409 100.482 104.528 100.929 104.767C101.376 105.002 101.722 105.364 101.968 105.852C102.218 106.337 102.343 106.955 102.343 107.705V113.25H101.003V107.795C101.003 107.102 100.823 106.566 100.463 106.188C100.107 105.805 99.6124 105.614 98.9798 105.614C98.5405 105.614 98.1465 105.706 97.798 105.892C97.4533 106.078 97.1806 106.348 96.9798 106.705C96.7829 107.061 96.6844 107.492 96.6844 108ZM104.797 113.25V104.523H106.138V113.25H104.797ZM105.478 103.068C105.217 103.068 104.992 102.979 104.802 102.801C104.617 102.623 104.524 102.409 104.524 102.159C104.524 101.909 104.617 101.695 104.802 101.517C104.992 101.339 105.217 101.25 105.478 101.25C105.74 101.25 105.963 101.339 106.149 101.517C106.338 101.695 106.433 101.909 106.433 102.159C106.433 102.409 106.338 102.623 106.149 102.801C105.963 102.979 105.74 103.068 105.478 103.068ZM112.139 113.432C111.351 113.432 110.66 113.244 110.065 112.869C109.474 112.494 109.012 111.97 108.679 111.295C108.349 110.621 108.184 109.833 108.184 108.932C108.184 108.023 108.349 107.229 108.679 106.551C109.012 105.873 109.474 105.347 110.065 104.972C110.66 104.597 111.351 104.409 112.139 104.409C112.927 104.409 113.616 104.597 114.207 104.972C114.802 105.347 115.264 105.873 115.593 106.551C115.927 107.229 116.093 108.023 116.093 108.932C116.093 109.833 115.927 110.621 115.593 111.295C115.264 111.97 114.802 112.494 114.207 112.869C113.616 113.244 112.927 113.432 112.139 113.432ZM112.139 112.227C112.737 112.227 113.23 112.074 113.616 111.767C114.003 111.46 114.289 111.057 114.474 110.557C114.66 110.057 114.753 109.515 114.753 108.932C114.753 108.348 114.66 107.805 114.474 107.301C114.289 106.797 114.003 106.39 113.616 106.08C113.23 105.769 112.737 105.614 112.139 105.614C111.54 105.614 111.048 105.769 110.662 106.08C110.275 106.39 109.989 106.797 109.804 107.301C109.618 107.805 109.525 108.348 109.525 108.932C109.525 109.515 109.618 110.057 109.804 110.557C109.989 111.057 110.275 111.46 110.662 111.767C111.048 112.074 111.54 112.227 112.139 112.227ZM119.481 108V113.25H118.14V104.523H119.436V105.886H119.549C119.754 105.443 120.065 105.087 120.481 104.818C120.898 104.545 121.436 104.409 122.095 104.409C122.686 104.409 123.203 104.53 123.646 104.773C124.089 105.011 124.434 105.375 124.68 105.864C124.926 106.348 125.049 106.962 125.049 107.705V113.25H123.709V107.795C123.709 107.11 123.531 106.576 123.174 106.193C122.818 105.807 122.33 105.614 121.709 105.614C121.281 105.614 120.898 105.706 120.561 105.892C120.227 106.078 119.964 106.348 119.771 106.705C119.578 107.061 119.481 107.492 119.481 108ZM76.2824 132.068L68.9642 135.795V134.341L74.5779 131.636L74.5324 131.727V131.5L74.5779 131.591L68.9642 128.886V127.432L76.2824 131.159V132.068ZM79.7838 137.25H78.3066L82.5793 125.614H84.0338L88.3066 137.25H86.8293L83.352 127.455H83.2611L79.7838 137.25ZM80.3293 132.705H86.2838V133.955H80.3293V132.705ZM93.4827 137.432C92.6645 137.432 91.96 137.239 91.3691 136.852C90.7781 136.466 90.3236 135.934 90.0054 135.256C89.6872 134.578 89.5281 133.803 89.5281 132.932C89.5281 132.045 89.691 131.263 90.0168 130.585C90.3463 129.903 90.8047 129.371 91.3918 128.989C91.9827 128.602 92.6721 128.409 93.46 128.409C94.0736 128.409 94.6266 128.523 95.1191 128.75C95.6115 128.977 96.0149 129.295 96.3293 129.705C96.6437 130.114 96.8387 130.591 96.9145 131.136H95.5736C95.4713 130.739 95.2441 130.386 94.8918 130.08C94.5433 129.769 94.0736 129.614 93.4827 129.614C92.96 129.614 92.5016 129.75 92.1077 130.023C91.7175 130.292 91.4126 130.672 91.1929 131.165C90.977 131.653 90.8691 132.227 90.8691 132.886C90.8691 133.561 90.9751 134.148 91.1872 134.648C91.4031 135.148 91.7062 135.536 92.0963 135.812C92.4903 136.089 92.9524 136.227 93.4827 136.227C93.8312 136.227 94.1475 136.167 94.4316 136.045C94.7156 135.924 94.9562 135.75 95.1531 135.523C95.3501 135.295 95.4903 135.023 95.5736 134.705H96.9145C96.8387 135.22 96.6512 135.684 96.352 136.097C96.0566 136.506 95.6645 136.831 95.1759 137.074C94.691 137.312 94.1266 137.432 93.4827 137.432ZM102.42 137.432C101.602 137.432 100.897 137.239 100.307 136.852C99.7156 136.466 99.2611 135.934 98.9429 135.256C98.6247 134.578 98.4656 133.803 98.4656 132.932C98.4656 132.045 98.6285 131.263 98.9543 130.585C99.2838 129.903 99.7422 129.371 100.329 128.989C100.92 128.602 101.61 128.409 102.397 128.409C103.011 128.409 103.564 128.523 104.057 128.75C104.549 128.977 104.952 129.295 105.267 129.705C105.581 130.114 105.776 130.591 105.852 131.136H104.511C104.409 130.739 104.182 130.386 103.829 130.08C103.481 129.769 103.011 129.614 102.42 129.614C101.897 129.614 101.439 129.75 101.045 130.023C100.655 130.292 100.35 130.672 100.13 131.165C99.9145 131.653 99.8066 132.227 99.8066 132.886C99.8066 133.561 99.9126 134.148 100.125 134.648C100.341 135.148 100.644 135.536 101.034 135.812C101.428 136.089 101.89 136.227 102.42 136.227C102.769 136.227 103.085 136.167 103.369 136.045C103.653 135.924 103.894 135.75 104.091 135.523C104.288 135.295 104.428 135.023 104.511 134.705H105.852C105.776 135.22 105.589 135.684 105.29 136.097C104.994 136.506 104.602 136.831 104.113 137.074C103.629 137.312 103.064 137.432 102.42 137.432ZM111.471 137.432C110.63 137.432 109.905 137.246 109.295 136.875C108.689 136.5 108.221 135.977 107.892 135.307C107.566 134.633 107.403 133.848 107.403 132.955C107.403 132.061 107.566 131.273 107.892 130.591C108.221 129.905 108.68 129.371 109.267 128.989C109.858 128.602 110.547 128.409 111.335 128.409C111.79 128.409 112.238 128.485 112.682 128.636C113.125 128.788 113.528 129.034 113.892 129.375C114.255 129.712 114.545 130.159 114.761 130.716C114.977 131.273 115.085 131.958 115.085 132.773V133.341H108.358V132.182H113.721C113.721 131.689 113.623 131.25 113.426 130.864C113.233 130.477 112.956 130.172 112.596 129.949C112.24 129.725 111.82 129.614 111.335 129.614C110.801 129.614 110.339 129.746 109.949 130.011C109.562 130.273 109.265 130.614 109.057 131.034C108.848 131.455 108.744 131.905 108.744 132.386V133.159C108.744 133.818 108.858 134.377 109.085 134.835C109.316 135.29 109.636 135.636 110.045 135.875C110.454 136.11 110.93 136.227 111.471 136.227C111.824 136.227 112.142 136.178 112.426 136.08C112.714 135.977 112.962 135.826 113.17 135.625C113.379 135.42 113.54 135.167 113.653 134.864L114.949 135.227C114.812 135.667 114.583 136.053 114.261 136.386C113.939 136.716 113.541 136.973 113.068 137.159C112.594 137.341 112.062 137.432 111.471 137.432ZM123.307 130.477L122.102 130.818C122.026 130.617 121.915 130.422 121.767 130.233C121.623 130.04 121.426 129.881 121.176 129.756C120.926 129.631 120.606 129.568 120.216 129.568C119.682 129.568 119.236 129.691 118.88 129.938C118.528 130.18 118.352 130.489 118.352 130.864C118.352 131.197 118.473 131.46 118.716 131.653C118.958 131.847 119.337 132.008 119.852 132.136L121.147 132.455C121.928 132.644 122.509 132.934 122.892 133.324C123.274 133.71 123.466 134.208 123.466 134.818C123.466 135.318 123.322 135.765 123.034 136.159C122.75 136.553 122.352 136.864 121.841 137.091C121.329 137.318 120.735 137.432 120.057 137.432C119.166 137.432 118.43 137.239 117.846 136.852C117.263 136.466 116.894 135.902 116.738 135.159L118.011 134.841C118.132 135.311 118.361 135.663 118.699 135.898C119.04 136.133 119.485 136.25 120.034 136.25C120.659 136.25 121.155 136.117 121.522 135.852C121.894 135.583 122.079 135.261 122.079 134.886C122.079 134.583 121.973 134.33 121.761 134.125C121.549 133.917 121.223 133.761 120.784 133.659L119.329 133.318C118.53 133.129 117.943 132.835 117.568 132.438C117.197 132.036 117.011 131.534 117.011 130.932C117.011 130.439 117.149 130.004 117.426 129.625C117.706 129.246 118.087 128.949 118.568 128.733C119.053 128.517 119.602 128.409 120.216 128.409C121.079 128.409 121.757 128.598 122.25 128.977C122.746 129.356 123.098 129.856 123.307 130.477ZM131.666 130.477L130.461 130.818C130.386 130.617 130.274 130.422 130.126 130.233C129.982 130.04 129.785 129.881 129.535 129.756C129.285 129.631 128.965 129.568 128.575 129.568C128.041 129.568 127.596 129.691 127.24 129.938C126.888 130.18 126.711 130.489 126.711 130.864C126.711 131.197 126.833 131.46 127.075 131.653C127.317 131.847 127.696 132.008 128.211 132.136L129.507 132.455C130.287 132.644 130.869 132.934 131.251 133.324C131.634 133.71 131.825 134.208 131.825 134.818C131.825 135.318 131.681 135.765 131.393 136.159C131.109 136.553 130.711 136.864 130.2 137.091C129.689 137.318 129.094 137.432 128.416 137.432C127.526 137.432 126.789 137.239 126.206 136.852C125.622 136.466 125.253 135.902 125.098 135.159L126.37 134.841C126.492 135.311 126.721 135.663 127.058 135.898C127.399 136.133 127.844 136.25 128.393 136.25C129.018 136.25 129.514 136.117 129.882 135.852C130.253 135.583 130.439 135.261 130.439 134.886C130.439 134.583 130.333 134.33 130.12 134.125C129.908 133.917 129.583 133.761 129.143 133.659L127.689 133.318C126.889 133.129 126.302 132.835 125.927 132.438C125.556 132.036 125.37 131.534 125.37 130.932C125.37 130.439 125.509 130.004 125.785 129.625C126.066 129.246 126.446 128.949 126.927 128.733C127.412 128.517 127.961 128.409 128.575 128.409C129.439 128.409 130.117 128.598 130.609 128.977C131.105 129.356 131.458 129.856 131.666 130.477ZM137.389 137.432C136.601 137.432 135.91 137.244 135.315 136.869C134.724 136.494 134.262 135.97 133.929 135.295C133.599 134.621 133.434 133.833 133.434 132.932C133.434 132.023 133.599 131.229 133.929 130.551C134.262 129.873 134.724 129.347 135.315 128.972C135.91 128.597 136.601 128.409 137.389 128.409C138.177 128.409 138.866 128.597 139.457 128.972C140.052 129.347 140.514 129.873 140.843 130.551C141.177 131.229 141.343 132.023 141.343 132.932C141.343 133.833 141.177 134.621 140.843 135.295C140.514 135.97 140.052 136.494 139.457 136.869C138.866 137.244 138.177 137.432 137.389 137.432ZM137.389 136.227C137.987 136.227 138.48 136.074 138.866 135.767C139.253 135.46 139.539 135.057 139.724 134.557C139.91 134.057 140.003 133.515 140.003 132.932C140.003 132.348 139.91 131.805 139.724 131.301C139.539 130.797 139.253 130.39 138.866 130.08C138.48 129.769 137.987 129.614 137.389 129.614C136.79 129.614 136.298 129.769 135.912 130.08C135.525 130.39 135.239 130.797 135.054 131.301C134.868 131.805 134.775 132.348 134.775 132.932C134.775 133.515 134.868 134.057 135.054 134.557C135.239 135.057 135.525 135.46 135.912 135.767C136.298 136.074 136.79 136.227 137.389 136.227ZM143.39 137.25V128.523H144.686V129.841H144.777C144.936 129.409 145.224 129.059 145.64 128.79C146.057 128.521 146.527 128.386 147.049 128.386C147.148 128.386 147.271 128.388 147.419 128.392C147.566 128.396 147.678 128.402 147.754 128.409V129.773C147.709 129.761 147.604 129.744 147.441 129.722C147.282 129.695 147.114 129.682 146.936 129.682C146.512 129.682 146.133 129.771 145.799 129.949C145.47 130.123 145.209 130.366 145.015 130.676C144.826 130.983 144.731 131.333 144.731 131.727V137.25H143.39ZM149.343 137.25V128.523H150.684V137.25H149.343ZM150.025 127.068C149.764 127.068 149.539 126.979 149.349 126.801C149.164 126.623 149.071 126.409 149.071 126.159C149.071 125.909 149.164 125.695 149.349 125.517C149.539 125.339 149.764 125.25 150.025 125.25C150.287 125.25 150.51 125.339 150.696 125.517C150.885 125.695 150.98 125.909 150.98 126.159C150.98 126.409 150.885 126.623 150.696 126.801C150.51 126.979 150.287 127.068 150.025 127.068ZM156.799 137.432C155.959 137.432 155.233 137.246 154.623 136.875C154.017 136.5 153.549 135.977 153.22 135.307C152.894 134.633 152.731 133.848 152.731 132.955C152.731 132.061 152.894 131.273 153.22 130.591C153.549 129.905 154.008 129.371 154.595 128.989C155.186 128.602 155.875 128.409 156.663 128.409C157.118 128.409 157.566 128.485 158.01 128.636C158.453 128.788 158.856 129.034 159.22 129.375C159.584 129.712 159.873 130.159 160.089 130.716C160.305 131.273 160.413 131.958 160.413 132.773V133.341H153.686V132.182H159.049C159.049 131.689 158.951 131.25 158.754 130.864C158.561 130.477 158.284 130.172 157.924 129.949C157.568 129.725 157.148 129.614 156.663 129.614C156.129 129.614 155.667 129.746 155.277 130.011C154.89 130.273 154.593 130.614 154.385 131.034C154.176 131.455 154.072 131.905 154.072 132.386V133.159C154.072 133.818 154.186 134.377 154.413 134.835C154.644 135.29 154.964 135.636 155.373 135.875C155.782 136.11 156.258 136.227 156.799 136.227C157.152 136.227 157.47 136.178 157.754 136.08C158.042 135.977 158.29 135.826 158.498 135.625C158.707 135.42 158.868 135.167 158.981 134.864L160.277 135.227C160.14 135.667 159.911 136.053 159.589 136.386C159.267 136.716 158.87 136.973 158.396 137.159C157.923 137.341 157.39 137.432 156.799 137.432ZM168.635 130.477L167.43 130.818C167.354 130.617 167.243 130.422 167.095 130.233C166.951 130.04 166.754 129.881 166.504 129.756C166.254 129.631 165.934 129.568 165.544 129.568C165.01 129.568 164.565 129.691 164.209 129.938C163.856 130.18 163.68 130.489 163.68 130.864C163.68 131.197 163.801 131.46 164.044 131.653C164.286 131.847 164.665 132.008 165.18 132.136L166.476 132.455C167.256 132.644 167.837 132.934 168.22 133.324C168.602 133.71 168.794 134.208 168.794 134.818C168.794 135.318 168.65 135.765 168.362 136.159C168.078 136.553 167.68 136.864 167.169 137.091C166.657 137.318 166.063 137.432 165.385 137.432C164.495 137.432 163.758 137.239 163.174 136.852C162.591 136.466 162.222 135.902 162.066 135.159L163.339 134.841C163.46 135.311 163.69 135.663 164.027 135.898C164.368 136.133 164.813 136.25 165.362 136.25C165.987 136.25 166.483 136.117 166.851 135.852C167.222 135.583 167.407 135.261 167.407 134.886C167.407 134.583 167.301 134.33 167.089 134.125C166.877 133.917 166.551 133.761 166.112 133.659L164.657 133.318C163.858 133.129 163.271 132.835 162.896 132.438C162.525 132.036 162.339 131.534 162.339 130.932C162.339 130.439 162.477 130.004 162.754 129.625C163.034 129.246 163.415 128.949 163.896 128.733C164.381 128.517 164.93 128.409 165.544 128.409C166.407 128.409 167.085 128.598 167.578 128.977C168.074 129.356 168.426 129.856 168.635 130.477Z" fill="white"/>
</svg>
