<svg width="238" height="238" viewBox="0 0 238 238" fill="none"
    xmlns="http://www.w3.org/2000/svg">
    <rect x="0.299805" y="0.599976" width="237.3" height="237.3" rx="12" fill="#443E3E"/>
    <path d="M60.8366 113.25H59.3593L63.632 101.614H65.0866L69.3593 113.25H67.882L64.4047 103.455H64.3138L60.8366 113.25ZM61.382 108.705H67.3366V109.955H61.382V108.705ZM77.0326 104.523L73.8053 113.25H72.4417L69.2144 104.523H70.6689L73.078 111.477H73.1689L75.578 104.523H77.0326ZM81.105 113.455C80.552 113.455 80.0501 113.35 79.5993 113.142C79.1486 112.93 78.7906 112.625 78.5255 112.227C78.2603 111.826 78.1278 111.341 78.1278 110.773C78.1278 110.273 78.2262 109.867 78.4232 109.557C78.6202 109.242 78.8834 108.996 79.213 108.818C79.5425 108.64 79.9062 108.508 80.3039 108.42C80.7054 108.33 81.1088 108.258 81.5141 108.205C82.0444 108.136 82.4743 108.085 82.8039 108.051C83.1372 108.013 83.3796 107.951 83.5312 107.864C83.6865 107.777 83.7641 107.625 83.7641 107.409V107.364C83.7641 106.803 83.6107 106.367 83.3039 106.057C83.0009 105.746 82.5406 105.591 81.9232 105.591C81.2831 105.591 80.7812 105.731 80.4175 106.011C80.0539 106.292 79.7982 106.591 79.6505 106.909L78.3778 106.455C78.605 105.924 78.9081 105.511 79.2868 105.216C79.6694 104.917 80.0861 104.708 80.5368 104.591C80.9914 104.47 81.4384 104.409 81.8778 104.409C82.1581 104.409 82.48 104.443 82.8437 104.511C83.2111 104.576 83.5653 104.71 83.9062 104.915C84.2509 105.119 84.5368 105.428 84.7641 105.841C84.9914 106.254 85.105 106.807 85.105 107.5V113.25H83.7641V112.068H83.6959C83.605 112.258 83.4535 112.46 83.2414 112.676C83.0293 112.892 82.7471 113.076 82.3948 113.227C82.0425 113.379 81.6126 113.455 81.105 113.455ZM81.3096 112.25C81.8399 112.25 82.2868 112.146 82.6505 111.938C83.0179 111.729 83.2944 111.46 83.48 111.131C83.6694 110.801 83.7641 110.455 83.7641 110.091V108.864C83.7073 108.932 83.5823 108.994 83.3891 109.051C83.1997 109.104 82.98 109.152 82.73 109.193C82.4838 109.231 82.2433 109.265 82.0084 109.295C81.7774 109.322 81.5899 109.345 81.4459 109.364C81.0974 109.409 80.7717 109.483 80.4687 109.585C80.1694 109.684 79.927 109.833 79.7414 110.034C79.5596 110.231 79.4687 110.5 79.4687 110.841C79.4687 111.307 79.641 111.659 79.9857 111.898C80.3342 112.133 80.7755 112.25 81.3096 112.25ZM91.3479 104.523V105.659H86.8252V104.523H91.3479ZM88.1434 102.432H89.4843V110.75C89.4843 111.129 89.5392 111.413 89.6491 111.602C89.7627 111.788 89.9066 111.913 90.0809 111.977C90.2589 112.038 90.4464 112.068 90.6434 112.068C90.7911 112.068 90.9123 112.061 91.007 112.045C91.1017 112.027 91.1775 112.011 91.2343 112L91.507 113.205C91.4161 113.239 91.2892 113.273 91.1263 113.307C90.9635 113.345 90.757 113.364 90.507 113.364C90.1282 113.364 89.757 113.282 89.3934 113.119C89.0335 112.956 88.7343 112.708 88.4956 112.375C88.2608 112.042 88.1434 111.621 88.1434 111.114V102.432ZM95.9332 113.455C95.3801 113.455 94.8782 113.35 94.4275 113.142C93.9767 112.93 93.6188 112.625 93.3536 112.227C93.0885 111.826 92.9559 111.341 92.9559 110.773C92.9559 110.273 93.0544 109.867 93.2513 109.557C93.4483 109.242 93.7116 108.996 94.0411 108.818C94.3706 108.64 94.7343 108.508 95.132 108.42C95.5335 108.33 95.9369 108.258 96.3422 108.205C96.8725 108.136 97.3025 108.085 97.632 108.051C97.9653 108.013 98.2078 107.951 98.3593 107.864C98.5146 107.777 98.5922 107.625 98.5922 107.409V107.364C98.5922 106.803 98.4388 106.367 98.132 106.057C97.829 105.746 97.3688 105.591 96.7513 105.591C96.1112 105.591 95.6093 105.731 95.2457 106.011C94.882 106.292 94.6263 106.591 94.4786 106.909L93.2059 106.455C93.4331 105.924 93.7362 105.511 94.115 105.216C94.4975 104.917 94.9142 104.708 95.365 104.591C95.8195 104.47 96.2665 104.409 96.7059 104.409C96.9862 104.409 97.3081 104.443 97.6718 104.511C98.0392 104.576 98.3934 104.71 98.7343 104.915C99.079 105.119 99.365 105.428 99.5922 105.841C99.8195 106.254 99.9332 106.807 99.9332 107.5V113.25H98.5922V112.068H98.5241C98.4331 112.258 98.2816 112.46 98.0695 112.676C97.8574 112.892 97.5752 113.076 97.2229 113.227C96.8707 113.379 96.4407 113.455 95.9332 113.455ZM96.1377 112.25C96.668 112.25 97.115 112.146 97.4786 111.938C97.846 111.729 98.1225 111.46 98.3081 111.131C98.4975 110.801 98.5922 110.455 98.5922 110.091V108.864C98.5354 108.932 98.4104 108.994 98.2172 109.051C98.0278 109.104 97.8081 109.152 97.5581 109.193C97.3119 109.231 97.0714 109.265 96.8366 109.295C96.6055 109.322 96.418 109.345 96.2741 109.364C95.9256 109.409 95.5998 109.483 95.2968 109.585C94.9975 109.684 94.7551 109.833 94.5695 110.034C94.3877 110.231 94.2968 110.5 94.2968 110.841C94.2968 111.307 94.4691 111.659 94.8138 111.898C95.1623 112.133 95.6036 112.25 96.1377 112.25ZM102.381 113.25V104.523H103.676V105.841H103.767C103.926 105.409 104.214 105.059 104.631 104.79C105.047 104.521 105.517 104.386 106.04 104.386C106.138 104.386 106.261 104.388 106.409 104.392C106.557 104.396 106.668 104.402 106.744 104.409V105.773C106.699 105.761 106.595 105.744 106.432 105.722C106.273 105.695 106.104 105.682 105.926 105.682C105.502 105.682 105.123 105.771 104.79 105.949C104.46 106.123 104.199 106.366 104.006 106.676C103.816 106.983 103.722 107.333 103.722 107.727V113.25H102.381ZM114.516 106.477L113.311 106.818C113.235 106.617 113.123 106.422 112.976 106.233C112.832 106.04 112.635 105.881 112.385 105.756C112.135 105.631 111.815 105.568 111.425 105.568C110.891 105.568 110.445 105.691 110.089 105.938C109.737 106.18 109.561 106.489 109.561 106.864C109.561 107.197 109.682 107.46 109.925 107.653C110.167 107.847 110.546 108.008 111.061 108.136L112.356 108.455C113.137 108.644 113.718 108.934 114.101 109.324C114.483 109.71 114.675 110.208 114.675 110.818C114.675 111.318 114.531 111.765 114.243 112.159C113.959 112.553 113.561 112.864 113.05 113.091C112.538 113.318 111.944 113.432 111.266 113.432C110.375 113.432 109.639 113.239 109.055 112.852C108.472 112.466 108.103 111.902 107.947 111.159L109.22 110.841C109.341 111.311 109.57 111.663 109.908 111.898C110.248 112.133 110.694 112.25 111.243 112.25C111.868 112.25 112.364 112.117 112.731 111.852C113.103 111.583 113.288 111.261 113.288 110.886C113.288 110.583 113.182 110.33 112.97 110.125C112.758 109.917 112.432 109.761 111.993 109.659L110.538 109.318C109.739 109.129 109.152 108.835 108.777 108.438C108.406 108.036 108.22 107.534 108.22 106.932C108.22 106.439 108.358 106.004 108.635 105.625C108.915 105.246 109.296 104.949 109.777 104.733C110.262 104.517 110.811 104.409 111.425 104.409C112.288 104.409 112.966 104.598 113.459 104.977C113.955 105.356 114.307 105.856 114.516 106.477ZM67.882 132.068L60.5638 135.795V134.341L66.1775 131.636L66.132 131.727V131.5L66.1775 131.591L60.5638 128.886V127.432L67.882 131.159V132.068ZM71.3834 137.25H69.9062L74.1789 125.614H75.6334L79.9062 137.25H78.4289L74.9516 127.455H74.8607L71.3834 137.25ZM71.9289 132.705H77.8834V133.955H71.9289V132.705ZM82.8778 132V137.25H81.5368V128.523H82.8323V129.886H82.9459C83.1505 129.443 83.4611 129.087 83.8778 128.818C84.2944 128.545 84.8323 128.409 85.4914 128.409C86.0823 128.409 86.5993 128.53 87.0425 128.773C87.4857 129.011 87.8304 129.375 88.0766 129.864C88.3228 130.348 88.4459 130.962 88.4459 131.705V137.25H87.105V131.795C87.105 131.11 86.927 130.576 86.5709 130.193C86.2149 129.807 85.7262 129.614 85.105 129.614C84.677 129.614 84.2944 129.706 83.9573 129.892C83.624 130.078 83.3607 130.348 83.1675 130.705C82.9743 131.061 82.8778 131.492 82.8778 132ZM94.6917 128.523V129.659H90.1689V128.523H94.6917ZM91.4871 126.432H92.828V134.75C92.828 135.129 92.883 135.413 92.9928 135.602C93.1064 135.788 93.2504 135.913 93.4246 135.977C93.6027 136.038 93.7902 136.068 93.9871 136.068C94.1349 136.068 94.2561 136.061 94.3508 136.045C94.4455 136.027 94.5212 136.011 94.578 136L94.8508 137.205C94.7599 137.239 94.633 137.273 94.4701 137.307C94.3072 137.345 94.1008 137.364 93.8508 137.364C93.472 137.364 93.1008 137.282 92.7371 137.119C92.3773 136.956 92.078 136.708 91.8394 136.375C91.6046 136.042 91.4871 135.621 91.4871 135.114V126.432ZM98.2371 132V137.25H96.8962V125.614H98.2371V129.886H98.3508C98.5553 129.436 98.8621 129.078 99.2712 128.812C99.6841 128.544 100.233 128.409 100.919 128.409C101.514 128.409 102.034 128.528 102.481 128.767C102.928 129.002 103.275 129.364 103.521 129.852C103.771 130.337 103.896 130.955 103.896 131.705V137.25H102.555V131.795C102.555 131.102 102.375 130.566 102.016 130.188C101.659 129.805 101.165 129.614 100.533 129.614C100.093 129.614 99.6992 129.706 99.3508 129.892C99.0061 130.078 98.7333 130.348 98.5326 130.705C98.3356 131.061 98.2371 131.492 98.2371 132ZM106.349 137.25V128.523H107.645V129.841H107.736C107.895 129.409 108.183 129.059 108.599 128.79C109.016 128.521 109.486 128.386 110.008 128.386C110.107 128.386 110.23 128.388 110.378 128.392C110.525 128.396 110.637 128.402 110.713 128.409V129.773C110.668 129.761 110.563 129.744 110.4 129.722C110.241 129.695 110.073 129.682 109.895 129.682C109.471 129.682 109.092 129.771 108.758 129.949C108.429 130.123 108.168 130.366 107.974 130.676C107.785 130.983 107.69 131.333 107.69 131.727V137.25H106.349ZM115.582 137.432C114.794 137.432 114.103 137.244 113.508 136.869C112.918 136.494 112.455 135.97 112.122 135.295C111.793 134.621 111.628 133.833 111.628 132.932C111.628 132.023 111.793 131.229 112.122 130.551C112.455 129.873 112.918 129.347 113.508 128.972C114.103 128.597 114.794 128.409 115.582 128.409C116.37 128.409 117.06 128.597 117.65 128.972C118.245 129.347 118.707 129.873 119.037 130.551C119.37 131.229 119.537 132.023 119.537 132.932C119.537 133.833 119.37 134.621 119.037 135.295C118.707 135.97 118.245 136.494 117.65 136.869C117.06 137.244 116.37 137.432 115.582 137.432ZM115.582 136.227C116.181 136.227 116.673 136.074 117.06 135.767C117.446 135.46 117.732 135.057 117.918 134.557C118.103 134.057 118.196 133.515 118.196 132.932C118.196 132.348 118.103 131.805 117.918 131.301C117.732 130.797 117.446 130.39 117.06 130.08C116.673 129.769 116.181 129.614 115.582 129.614C114.984 129.614 114.491 129.769 114.105 130.08C113.719 130.39 113.433 130.797 113.247 131.301C113.061 131.805 112.969 132.348 112.969 132.932C112.969 133.515 113.061 134.057 113.247 134.557C113.433 135.057 113.719 135.46 114.105 135.767C114.491 136.074 114.984 136.227 115.582 136.227ZM129.379 137.409C128.614 137.409 127.955 137.269 127.402 136.989C126.849 136.708 126.423 136.324 126.123 135.835C125.824 135.347 125.675 134.788 125.675 134.159C125.675 133.674 125.777 133.244 125.981 132.869C126.19 132.491 126.476 132.14 126.839 131.818C127.207 131.492 127.629 131.167 128.106 130.841L129.788 129.591C130.118 129.375 130.381 129.144 130.578 128.898C130.779 128.652 130.879 128.33 130.879 127.932C130.879 127.636 130.748 127.35 130.487 127.074C130.23 126.797 129.891 126.659 129.47 126.659C129.175 126.659 128.913 126.735 128.686 126.886C128.463 127.034 128.286 127.223 128.158 127.455C128.033 127.682 127.97 127.917 127.97 128.159C127.97 128.432 128.044 128.708 128.192 128.989C128.343 129.265 128.534 129.549 128.766 129.841C129 130.129 129.243 130.424 129.493 130.727L134.834 137.25H133.22L128.811 131.932C128.402 131.439 128.031 130.992 127.697 130.591C127.364 130.189 127.099 129.794 126.902 129.403C126.705 129.013 126.606 128.591 126.606 128.136C126.606 127.614 126.722 127.155 126.953 126.761C127.188 126.364 127.516 126.055 127.936 125.835C128.36 125.612 128.856 125.5 129.425 125.5C130.008 125.5 130.51 125.614 130.93 125.841C131.351 126.064 131.675 126.362 131.902 126.733C132.129 127.1 132.243 127.5 132.243 127.932C132.243 128.489 132.105 128.972 131.828 129.381C131.552 129.79 131.175 130.17 130.697 130.523L128.379 132.25C127.856 132.636 127.502 133.011 127.317 133.375C127.131 133.739 127.038 134 127.038 134.159C127.038 134.523 127.133 134.862 127.322 135.176C127.512 135.491 127.779 135.744 128.123 135.938C128.468 136.131 128.872 136.227 129.334 136.227C129.773 136.227 130.201 136.134 130.618 135.949C131.034 135.759 131.411 135.487 131.748 135.131C132.089 134.775 132.358 134.347 132.555 133.847C132.756 133.347 132.856 132.784 132.856 132.159H134.152C134.152 132.932 134.063 133.562 133.885 134.051C133.707 134.54 133.506 134.922 133.283 135.199C133.059 135.475 132.879 135.682 132.743 135.818C132.697 135.875 132.656 135.932 132.618 135.989C132.58 136.045 132.538 136.102 132.493 136.159C132.118 136.58 131.644 136.894 131.072 137.102C130.5 137.307 129.936 137.409 129.379 137.409ZM141 137.25V125.614H147.977V126.864H142.409V130.795H147.454V132.045H142.409V137.25H141ZM155.162 133.682V128.523H156.503V137.25H155.162V135.773H155.071C154.866 136.216 154.548 136.593 154.116 136.903C153.685 137.21 153.139 137.364 152.48 137.364C151.935 137.364 151.45 137.244 151.025 137.006C150.601 136.763 150.268 136.4 150.025 135.915C149.783 135.426 149.662 134.811 149.662 134.068V128.523H151.003V133.977C151.003 134.614 151.181 135.121 151.537 135.5C151.897 135.879 152.355 136.068 152.912 136.068C153.245 136.068 153.584 135.983 153.929 135.812C154.277 135.642 154.569 135.381 154.804 135.028C155.043 134.676 155.162 134.227 155.162 133.682ZM158.959 137.25V128.523H160.254V129.841H160.345C160.504 129.409 160.792 129.059 161.209 128.79C161.625 128.521 162.095 128.386 162.618 128.386C162.716 128.386 162.839 128.388 162.987 128.392C163.135 128.396 163.247 128.402 163.322 128.409V129.773C163.277 129.761 163.173 129.744 163.01 129.722C162.851 129.695 162.682 129.682 162.504 129.682C162.08 129.682 161.701 129.771 161.368 129.949C161.038 130.123 160.777 130.366 160.584 130.676C160.394 130.983 160.3 131.333 160.3 131.727V137.25H158.959ZM164.912 137.25V128.523H166.207V129.841H166.298C166.457 129.409 166.745 129.059 167.162 128.79C167.579 128.521 168.048 128.386 168.571 128.386C168.669 128.386 168.793 128.388 168.94 128.392C169.088 128.396 169.2 128.402 169.275 128.409V129.773C169.23 129.761 169.126 129.744 168.963 129.722C168.804 129.695 168.635 129.682 168.457 129.682C168.033 129.682 167.654 129.771 167.321 129.949C166.991 130.123 166.73 130.366 166.537 130.676C166.347 130.983 166.253 131.333 166.253 131.727V137.25H164.912ZM171.994 140.523C171.767 140.523 171.564 140.504 171.386 140.466C171.208 140.432 171.085 140.398 171.017 140.364L171.358 139.182C171.684 139.265 171.972 139.295 172.222 139.273C172.472 139.25 172.693 139.138 172.886 138.938C173.083 138.741 173.263 138.42 173.426 137.977L173.676 137.295L170.449 128.523H171.903L174.312 135.477H174.403L176.812 128.523H178.267L174.562 138.523C174.396 138.973 174.189 139.347 173.943 139.642C173.697 139.941 173.411 140.163 173.085 140.307C172.763 140.451 172.4 140.523 171.994 140.523Z" fill="white"/>
</svg>
