<svg width="239" height="238" viewBox="0 0 239 238" fill="none"
    xmlns="http://www.w3.org/2000/svg">
    <rect x="0.900391" y="0.599976" width="237.3" height="237.3" rx="12" fill="#443E3E"/>
    <path d="M86.4599 113.25V101.614H93.4371V102.864H87.869V106.795H92.9144V108.045H87.869V113.25H86.4599ZM98.2369 113.455C97.6838 113.455 97.1819 113.35 96.7312 113.142C96.2804 112.93 95.9225 112.625 95.6573 112.227C95.3922 111.826 95.2596 111.341 95.2596 110.773C95.2596 110.273 95.3581 109.867 95.555 109.557C95.752 109.242 96.0153 108.996 96.3448 108.818C96.6744 108.64 97.038 108.508 97.4357 108.42C97.8372 108.33 98.2406 108.258 98.646 108.205C99.1763 108.136 99.6062 108.085 99.9357 108.051C100.269 108.013 100.511 107.951 100.663 107.864C100.818 107.777 100.896 107.625 100.896 107.409V107.364C100.896 106.803 100.743 106.367 100.436 106.057C100.133 105.746 99.6725 105.591 99.055 105.591C98.4149 105.591 97.913 105.731 97.5494 106.011C97.1857 106.292 96.93 106.591 96.7823 106.909L95.5096 106.455C95.7369 105.924 96.0399 105.511 96.4187 105.216C96.8013 104.917 97.2179 104.708 97.6687 104.591C98.1232 104.47 98.5702 104.409 99.0096 104.409C99.2899 104.409 99.6119 104.443 99.9755 104.511C100.343 104.576 100.697 104.71 101.038 104.915C101.383 105.119 101.669 105.428 101.896 105.841C102.123 106.254 102.237 106.807 102.237 107.5V113.25H100.896V112.068H100.828C100.737 112.258 100.585 112.46 100.373 112.676C100.161 112.892 99.8789 113.076 99.5266 113.227C99.1744 113.379 98.7444 113.455 98.2369 113.455ZM98.4414 112.25C98.9717 112.25 99.4187 112.146 99.7823 111.938C100.15 111.729 100.426 111.46 100.612 111.131C100.801 110.801 100.896 110.455 100.896 110.091V108.864C100.839 108.932 100.714 108.994 100.521 109.051C100.332 109.104 100.112 109.152 99.8619 109.193C99.6156 109.231 99.3751 109.265 99.1403 109.295C98.9092 109.322 98.7217 109.345 98.5778 109.364C98.2293 109.409 97.9035 109.483 97.6005 109.585C97.3013 109.684 97.0588 109.833 96.8732 110.034C96.6914 110.231 96.6005 110.5 96.6005 110.841C96.6005 111.307 96.7728 111.659 97.1175 111.898C97.466 112.133 97.9073 112.25 98.4414 112.25ZM110.866 106.477L109.662 106.818C109.586 106.617 109.474 106.422 109.326 106.233C109.182 106.04 108.985 105.881 108.735 105.756C108.485 105.631 108.165 105.568 107.775 105.568C107.241 105.568 106.796 105.691 106.44 105.938C106.088 106.18 105.912 106.489 105.912 106.864C105.912 107.197 106.033 107.46 106.275 107.653C106.518 107.847 106.896 108.008 107.412 108.136L108.707 108.455C109.487 108.644 110.069 108.934 110.451 109.324C110.834 109.71 111.025 110.208 111.025 110.818C111.025 111.318 110.881 111.765 110.593 112.159C110.309 112.553 109.912 112.864 109.4 113.091C108.889 113.318 108.294 113.432 107.616 113.432C106.726 113.432 105.989 113.239 105.406 112.852C104.823 112.466 104.453 111.902 104.298 111.159L105.571 110.841C105.692 111.311 105.921 111.663 106.258 111.898C106.599 112.133 107.044 112.25 107.593 112.25C108.218 112.25 108.715 112.117 109.082 111.852C109.453 111.583 109.639 111.261 109.639 110.886C109.639 110.583 109.533 110.33 109.321 110.125C109.109 109.917 108.783 109.761 108.343 109.659L106.889 109.318C106.09 109.129 105.502 108.835 105.127 108.438C104.756 108.036 104.571 107.534 104.571 106.932C104.571 106.439 104.709 106.004 104.985 105.625C105.266 105.246 105.646 104.949 106.127 104.733C106.612 104.517 107.162 104.409 107.775 104.409C108.639 104.409 109.317 104.598 109.809 104.977C110.306 105.356 110.658 105.856 110.866 106.477ZM114.385 108V113.25H113.044V101.614H114.385V105.886H114.498C114.703 105.436 115.01 105.078 115.419 104.812C115.832 104.544 116.381 104.409 117.066 104.409C117.661 104.409 118.182 104.528 118.629 104.767C119.076 105.002 119.422 105.364 119.669 105.852C119.919 106.337 120.044 106.955 120.044 107.705V113.25H118.703V107.795C118.703 107.102 118.523 106.566 118.163 106.188C117.807 105.805 117.313 105.614 116.68 105.614C116.241 105.614 115.847 105.706 115.498 105.892C115.154 106.078 114.881 106.348 114.68 106.705C114.483 107.061 114.385 107.492 114.385 108ZM122.497 113.25V104.523H123.838V113.25H122.497ZM123.179 103.068C122.917 103.068 122.692 102.979 122.502 102.801C122.317 102.623 122.224 102.409 122.224 102.159C122.224 101.909 122.317 101.695 122.502 101.517C122.692 101.339 122.917 101.25 123.179 101.25C123.44 101.25 123.663 101.339 123.849 101.517C124.038 101.695 124.133 101.909 124.133 102.159C124.133 102.409 124.038 102.623 123.849 102.801C123.663 102.979 123.44 103.068 123.179 103.068ZM129.839 113.432C129.051 113.432 128.36 113.244 127.765 112.869C127.174 112.494 126.712 111.97 126.379 111.295C126.049 110.621 125.885 109.833 125.885 108.932C125.885 108.023 126.049 107.229 126.379 106.551C126.712 105.873 127.174 105.347 127.765 104.972C128.36 104.597 129.051 104.409 129.839 104.409C130.627 104.409 131.316 104.597 131.907 104.972C132.502 105.347 132.964 105.873 133.294 106.551C133.627 107.229 133.794 108.023 133.794 108.932C133.794 109.833 133.627 110.621 133.294 111.295C132.964 111.97 132.502 112.494 131.907 112.869C131.316 113.244 130.627 113.432 129.839 113.432ZM129.839 112.227C130.438 112.227 130.93 112.074 131.316 111.767C131.703 111.46 131.989 111.057 132.174 110.557C132.36 110.057 132.453 109.515 132.453 108.932C132.453 108.348 132.36 107.805 132.174 107.301C131.989 106.797 131.703 106.39 131.316 106.08C130.93 105.769 130.438 105.614 129.839 105.614C129.241 105.614 128.748 105.769 128.362 106.08C127.975 106.39 127.69 106.797 127.504 107.301C127.318 107.805 127.225 108.348 127.225 108.932C127.225 109.515 127.318 110.057 127.504 110.557C127.69 111.057 127.975 111.46 128.362 111.767C128.748 112.074 129.241 112.227 129.839 112.227ZM137.181 108V113.25H135.841V104.523H137.136V105.886H137.25C137.454 105.443 137.765 105.087 138.181 104.818C138.598 104.545 139.136 104.409 139.795 104.409C140.386 104.409 140.903 104.53 141.346 104.773C141.789 105.011 142.134 105.375 142.38 105.864C142.627 106.348 142.75 106.962 142.75 107.705V113.25H141.409V107.795C141.409 107.11 141.231 106.576 140.875 106.193C140.519 105.807 140.03 105.614 139.409 105.614C138.981 105.614 138.598 105.706 138.261 105.892C137.928 106.078 137.664 106.348 137.471 106.705C137.278 107.061 137.181 107.492 137.181 108ZM93.9826 132.068L86.6644 135.795V134.341L92.2781 131.636L92.2326 131.727V131.5L92.2781 131.591L86.6644 128.886V127.432L93.9826 131.159V132.068ZM106.37 129.25H104.961C104.878 128.845 104.732 128.489 104.524 128.182C104.319 127.875 104.069 127.617 103.774 127.409C103.482 127.197 103.158 127.038 102.802 126.932C102.446 126.826 102.075 126.773 101.689 126.773C100.984 126.773 100.346 126.951 99.7738 127.307C99.2056 127.663 98.753 128.188 98.4158 128.881C98.0825 129.574 97.9158 130.424 97.9158 131.432C97.9158 132.439 98.0825 133.29 98.4158 133.983C98.753 134.676 99.2056 135.201 99.7738 135.557C100.346 135.913 100.984 136.091 101.689 136.091C102.075 136.091 102.446 136.038 102.802 135.932C103.158 135.826 103.482 135.669 103.774 135.46C104.069 135.248 104.319 134.989 104.524 134.682C104.732 134.371 104.878 134.015 104.961 133.614H106.37C106.264 134.208 106.071 134.741 105.791 135.21C105.511 135.68 105.162 136.08 104.745 136.409C104.329 136.735 103.861 136.983 103.342 137.153C102.827 137.324 102.276 137.409 101.689 137.409C100.696 137.409 99.8136 137.167 99.0408 136.682C98.2681 136.197 97.6602 135.508 97.217 134.614C96.7738 133.72 96.5522 132.659 96.5522 131.432C96.5522 130.205 96.7738 129.144 97.217 128.25C97.6602 127.356 98.2681 126.667 99.0408 126.182C99.8136 125.697 100.696 125.455 101.689 125.455C102.276 125.455 102.827 125.54 103.342 125.71C103.861 125.881 104.329 126.131 104.745 126.46C105.162 126.786 105.511 127.184 105.791 127.653C106.071 128.119 106.264 128.652 106.37 129.25ZM109.806 125.614V137.25H108.466V125.614H109.806ZM115.808 137.432C115.02 137.432 114.329 137.244 113.734 136.869C113.143 136.494 112.681 135.97 112.348 135.295C112.018 134.621 111.853 133.833 111.853 132.932C111.853 132.023 112.018 131.229 112.348 130.551C112.681 129.873 113.143 129.347 113.734 128.972C114.329 128.597 115.02 128.409 115.808 128.409C116.596 128.409 117.285 128.597 117.876 128.972C118.471 129.347 118.933 129.873 119.262 130.551C119.596 131.229 119.762 132.023 119.762 132.932C119.762 133.833 119.596 134.621 119.262 135.295C118.933 135.97 118.471 136.494 117.876 136.869C117.285 137.244 116.596 137.432 115.808 137.432ZM115.808 136.227C116.406 136.227 116.899 136.074 117.285 135.767C117.672 135.46 117.958 135.057 118.143 134.557C118.329 134.057 118.422 133.515 118.422 132.932C118.422 132.348 118.329 131.805 118.143 131.301C117.958 130.797 117.672 130.39 117.285 130.08C116.899 129.769 116.406 129.614 115.808 129.614C115.209 129.614 114.717 129.769 114.331 130.08C113.944 130.39 113.658 130.797 113.473 131.301C113.287 131.805 113.194 132.348 113.194 132.932C113.194 133.515 113.287 134.057 113.473 134.557C113.658 135.057 113.944 135.46 114.331 135.767C114.717 136.074 115.209 136.227 115.808 136.227ZM125.605 128.523V129.659H121.082V128.523H125.605ZM122.4 126.432H123.741V134.75C123.741 135.129 123.796 135.413 123.906 135.602C124.02 135.788 124.163 135.913 124.338 135.977C124.516 136.038 124.703 136.068 124.9 136.068C125.048 136.068 125.169 136.061 125.264 136.045C125.359 136.027 125.434 136.011 125.491 136L125.764 137.205C125.673 137.239 125.546 137.273 125.383 137.307C125.22 137.345 125.014 137.364 124.764 137.364C124.385 137.364 124.014 137.282 123.65 137.119C123.29 136.956 122.991 136.708 122.752 136.375C122.518 136.042 122.4 135.621 122.4 135.114V126.432ZM129.15 132V137.25H127.809V125.614H129.15V129.886H129.264C129.468 129.436 129.775 129.078 130.184 128.812C130.597 128.544 131.146 128.409 131.832 128.409C132.427 128.409 132.948 128.528 133.395 128.767C133.842 129.002 134.188 129.364 134.434 129.852C134.684 130.337 134.809 130.955 134.809 131.705V137.25H133.468V131.795C133.468 131.102 133.288 130.566 132.929 130.188C132.573 129.805 132.078 129.614 131.446 129.614C131.006 129.614 130.612 129.706 130.264 129.892C129.919 130.078 129.646 130.348 129.446 130.705C129.249 131.061 129.15 131.492 129.15 132ZM140.922 137.432C140.081 137.432 139.355 137.246 138.745 136.875C138.139 136.5 137.672 135.977 137.342 135.307C137.016 134.633 136.853 133.848 136.853 132.955C136.853 132.061 137.016 131.273 137.342 130.591C137.672 129.905 138.13 129.371 138.717 128.989C139.308 128.602 139.997 128.409 140.785 128.409C141.24 128.409 141.689 128.485 142.132 128.636C142.575 128.788 142.978 129.034 143.342 129.375C143.706 129.712 143.995 130.159 144.211 130.716C144.427 131.273 144.535 131.958 144.535 132.773V133.341H137.808V132.182H143.172C143.172 131.689 143.073 131.25 142.876 130.864C142.683 130.477 142.406 130.172 142.047 129.949C141.69 129.725 141.27 129.614 140.785 129.614C140.251 129.614 139.789 129.746 139.399 130.011C139.012 130.273 138.715 130.614 138.507 131.034C138.298 131.455 138.194 131.905 138.194 132.386V133.159C138.194 133.818 138.308 134.377 138.535 134.835C138.766 135.29 139.086 135.636 139.495 135.875C139.904 136.11 140.38 136.227 140.922 136.227C141.274 136.227 141.592 136.178 141.876 136.08C142.164 135.977 142.412 135.826 142.62 135.625C142.829 135.42 142.99 135.167 143.103 134.864L144.399 135.227C144.262 135.667 144.033 136.053 143.711 136.386C143.389 136.716 142.992 136.973 142.518 137.159C142.045 137.341 141.512 137.432 140.922 137.432ZM152.757 130.477L151.552 130.818C151.476 130.617 151.365 130.422 151.217 130.233C151.073 130.04 150.876 129.881 150.626 129.756C150.376 129.631 150.056 129.568 149.666 129.568C149.132 129.568 148.687 129.691 148.331 129.938C147.978 130.18 147.802 130.489 147.802 130.864C147.802 131.197 147.923 131.46 148.166 131.653C148.408 131.847 148.787 132.008 149.302 132.136L150.598 132.455C151.378 132.644 151.959 132.934 152.342 133.324C152.725 133.71 152.916 134.208 152.916 134.818C152.916 135.318 152.772 135.765 152.484 136.159C152.2 136.553 151.802 136.864 151.291 137.091C150.779 137.318 150.185 137.432 149.507 137.432C148.617 137.432 147.88 137.239 147.297 136.852C146.713 136.466 146.344 135.902 146.189 135.159L147.461 134.841C147.583 135.311 147.812 135.663 148.149 135.898C148.49 136.133 148.935 136.25 149.484 136.25C150.109 136.25 150.605 136.117 150.973 135.852C151.344 135.583 151.529 135.261 151.529 134.886C151.529 134.583 151.423 134.33 151.211 134.125C150.999 133.917 150.673 133.761 150.234 133.659L148.779 133.318C147.98 133.129 147.393 132.835 147.018 132.438C146.647 132.036 146.461 131.534 146.461 130.932C146.461 130.439 146.6 130.004 146.876 129.625C147.156 129.246 147.537 128.949 148.018 128.733C148.503 128.517 149.052 128.409 149.666 128.409C150.529 128.409 151.208 128.598 151.7 128.977C152.196 129.356 152.548 129.856 152.757 130.477Z" fill="white"/>
</svg>
