<svg width="40" height="40" viewBox="0 0 40 40" fill="none"
    xmlns="http://www.w3.org/2000/svg">
    <rect x="0.5" y="0.5" width="39" height="39" rx="19.5" stroke="#F1F1F1"/>
    <path d="M26 20H28M26 20C26 18.8954 25.1046 18 24 18C22.8954 18 22 18.8954 22 20M26 20C26 21.1046 25.1046 22 24 22C22.8954 22 22 21.1046 22 20M14 14C14 15.1046 14.8954 16 16 16C17.1046 16 18 15.1046 18 14M14 14C14 12.8954 14.8954 12 16 12C17.1046 12 18 12.8954 18 14M14 14H12M18 14L28 14M22 20L12 20M14 26C14 27.1046 14.8954 28 16 28C17.1046 28 18 27.1046 18 26M14 26C14 24.8954 14.8954 24 16 24C17.1046 24 18 24.8954 18 26M14 26L12 26M18 26H28" stroke="#F1F1F1" stroke-width="2" stroke-linecap="round" stroke-linejoin="round"/>
</svg>
