<svg width="238" height="238" viewBox="0 0 238 238" fill="none"
    xmlns="http://www.w3.org/2000/svg">
    <rect y="0.599976" width="237.3" height="237.3" rx="12" fill="#443E3E"/>
    <path d="M72.0368 113.25H70.5595L74.8322 101.614H76.2868L80.5595 113.25H79.0822L75.6049 103.455H75.514L72.0368 113.25ZM72.5822 108.705H78.5368V109.955H72.5822V108.705ZM88.2328 104.523L85.0055 113.25H83.6419L80.4146 104.523H81.8691L84.2782 111.477H84.3691L86.7782 104.523H88.2328ZM92.3052 113.455C91.7522 113.455 91.2503 113.35 90.7995 113.142C90.3488 112.93 89.9908 112.625 89.7257 112.227C89.4605 111.826 89.3279 111.341 89.3279 110.773C89.3279 110.273 89.4264 109.867 89.6234 109.557C89.8204 109.242 90.0836 108.996 90.4132 108.818C90.7427 108.64 91.1064 108.508 91.5041 108.42C91.9056 108.33 92.309 108.258 92.7143 108.205C93.2446 108.136 93.6745 108.085 94.0041 108.051C94.3374 108.013 94.5798 107.951 94.7314 107.864C94.8867 107.777 94.9643 107.625 94.9643 107.409V107.364C94.9643 106.803 94.8109 106.367 94.5041 106.057C94.2011 105.746 93.7408 105.591 93.1234 105.591C92.4833 105.591 91.9814 105.731 91.6177 106.011C91.2541 106.292 90.9984 106.591 90.8507 106.909L89.5779 106.455C89.8052 105.924 90.1083 105.511 90.487 105.216C90.8696 104.917 91.2863 104.708 91.737 104.591C92.1916 104.47 92.6386 104.409 93.0779 104.409C93.3583 104.409 93.6802 104.443 94.0439 104.511C94.4113 104.576 94.7654 104.71 95.1064 104.915C95.4511 105.119 95.737 105.428 95.9643 105.841C96.1916 106.254 96.3052 106.807 96.3052 107.5V113.25H94.9643V112.068H94.8961C94.8052 112.258 94.6537 112.46 94.4416 112.676C94.2295 112.892 93.9473 113.076 93.595 113.227C93.2427 113.379 92.8128 113.455 92.3052 113.455ZM92.5098 112.25C93.0401 112.25 93.487 112.146 93.8507 111.938C94.2181 111.729 94.4946 111.46 94.6802 111.131C94.8696 110.801 94.9643 110.455 94.9643 110.091V108.864C94.9075 108.932 94.7825 108.994 94.5893 109.051C94.3999 109.104 94.1802 109.152 93.9302 109.193C93.684 109.231 93.4435 109.265 93.2086 109.295C92.9776 109.322 92.7901 109.345 92.6461 109.364C92.2976 109.409 91.9719 109.483 91.6689 109.585C91.3696 109.684 91.1272 109.833 90.9416 110.034C90.7598 110.231 90.6689 110.5 90.6689 110.841C90.6689 111.307 90.8412 111.659 91.1859 111.898C91.5344 112.133 91.9757 112.25 92.5098 112.25ZM102.548 104.523V105.659H98.0254V104.523H102.548ZM99.3436 102.432H100.684V110.75C100.684 111.129 100.739 111.413 100.849 111.602C100.963 111.788 101.107 111.913 101.281 111.977C101.459 112.038 101.647 112.068 101.844 112.068C101.991 112.068 102.113 112.061 102.207 112.045C102.302 112.027 102.378 112.011 102.434 112L102.707 113.205C102.616 113.239 102.489 113.273 102.327 113.307C102.164 113.345 101.957 113.364 101.707 113.364C101.328 113.364 100.957 113.282 100.594 113.119C100.234 112.956 99.9345 112.708 99.6958 112.375C99.461 112.042 99.3436 111.621 99.3436 111.114V102.432ZM107.133 113.455C106.58 113.455 106.078 113.35 105.628 113.142C105.177 112.93 104.819 112.625 104.554 112.227C104.289 111.826 104.156 111.341 104.156 110.773C104.156 110.273 104.255 109.867 104.452 109.557C104.648 109.242 104.912 108.996 105.241 108.818C105.571 108.64 105.934 108.508 106.332 108.42C106.734 108.33 107.137 108.258 107.542 108.205C108.073 108.136 108.503 108.085 108.832 108.051C109.166 108.013 109.408 107.951 109.559 107.864C109.715 107.777 109.792 107.625 109.792 107.409V107.364C109.792 106.803 109.639 106.367 109.332 106.057C109.029 105.746 108.569 105.591 107.952 105.591C107.311 105.591 106.809 105.731 106.446 106.011C106.082 106.292 105.827 106.591 105.679 106.909L104.406 106.455C104.633 105.924 104.936 105.511 105.315 105.216C105.698 104.917 106.114 104.708 106.565 104.591C107.02 104.47 107.467 104.409 107.906 104.409C108.186 104.409 108.508 104.443 108.872 104.511C109.239 104.576 109.594 104.71 109.934 104.915C110.279 105.119 110.565 105.428 110.792 105.841C111.02 106.254 111.133 106.807 111.133 107.5V113.25H109.792V112.068H109.724C109.633 112.258 109.482 112.46 109.27 112.676C109.058 112.892 108.775 113.076 108.423 113.227C108.071 113.379 107.641 113.455 107.133 113.455ZM107.338 112.25C107.868 112.25 108.315 112.146 108.679 111.938C109.046 111.729 109.323 111.46 109.508 111.131C109.698 110.801 109.792 110.455 109.792 110.091V108.864C109.736 108.932 109.611 108.994 109.417 109.051C109.228 109.104 109.008 109.152 108.758 109.193C108.512 109.231 108.272 109.265 108.037 109.295C107.806 109.322 107.618 109.345 107.474 109.364C107.126 109.409 106.8 109.483 106.497 109.585C106.198 109.684 105.955 109.833 105.77 110.034C105.588 110.231 105.497 110.5 105.497 110.841C105.497 111.307 105.669 111.659 106.014 111.898C106.363 112.133 106.804 112.25 107.338 112.25ZM113.581 113.25V104.523H114.876V105.841H114.967C115.126 105.409 115.414 105.059 115.831 104.79C116.247 104.521 116.717 104.386 117.24 104.386C117.338 104.386 117.461 104.388 117.609 104.392C117.757 104.396 117.869 104.402 117.944 104.409V105.773C117.899 105.761 117.795 105.744 117.632 105.722C117.473 105.695 117.304 105.682 117.126 105.682C116.702 105.682 116.323 105.771 115.99 105.949C115.66 106.123 115.399 106.366 115.206 106.676C115.016 106.983 114.922 107.333 114.922 107.727V113.25H113.581ZM125.716 106.477L124.511 106.818C124.435 106.617 124.324 106.422 124.176 106.233C124.032 106.04 123.835 105.881 123.585 105.756C123.335 105.631 123.015 105.568 122.625 105.568C122.091 105.568 121.646 105.691 121.29 105.938C120.937 106.18 120.761 106.489 120.761 106.864C120.761 107.197 120.882 107.46 121.125 107.653C121.367 107.847 121.746 108.008 122.261 108.136L123.557 108.455C124.337 108.644 124.918 108.934 125.301 109.324C125.684 109.71 125.875 110.208 125.875 110.818C125.875 111.318 125.731 111.765 125.443 112.159C125.159 112.553 124.761 112.864 124.25 113.091C123.738 113.318 123.144 113.432 122.466 113.432C121.576 113.432 120.839 113.239 120.256 112.852C119.672 112.466 119.303 111.902 119.148 111.159L120.42 110.841C120.541 111.311 120.771 111.663 121.108 111.898C121.449 112.133 121.894 112.25 122.443 112.25C123.068 112.25 123.564 112.117 123.932 111.852C124.303 111.583 124.488 111.261 124.488 110.886C124.488 110.583 124.382 110.33 124.17 110.125C123.958 109.917 123.632 109.761 123.193 109.659L121.738 109.318C120.939 109.129 120.352 108.835 119.977 108.438C119.606 108.036 119.42 107.534 119.42 106.932C119.42 106.439 119.559 106.004 119.835 105.625C120.115 105.246 120.496 104.949 120.977 104.733C121.462 104.517 122.011 104.409 122.625 104.409C123.488 104.409 124.166 104.598 124.659 104.977C125.155 105.356 125.507 105.856 125.716 106.477ZM79.0822 132.068L71.764 135.795V134.341L77.3777 131.636L77.3322 131.727V131.5L77.3777 131.591L71.764 128.886V127.432L79.0822 131.159V132.068ZM82.1064 137.25V125.614H83.5154V130.795H89.72V125.614H91.1291V137.25H89.72V132.045H83.5154V137.25H82.1064ZM99.2683 133.682V128.523H100.609V137.25H99.2683V135.773H99.1774C98.9728 136.216 98.6547 136.593 98.2228 136.903C97.791 137.21 97.2456 137.364 96.5865 137.364C96.041 137.364 95.5562 137.244 95.1319 137.006C94.7077 136.763 94.3743 136.4 94.1319 135.915C93.8895 135.426 93.7683 134.811 93.7683 134.068V128.523H95.1092V133.977C95.1092 134.614 95.2872 135.121 95.6433 135.5C96.0031 135.879 96.4615 136.068 97.0183 136.068C97.3516 136.068 97.6906 135.983 98.0353 135.812C98.3838 135.642 98.6755 135.381 98.9103 135.028C99.149 134.676 99.2683 134.227 99.2683 133.682ZM103.065 137.25V128.523H104.361V129.886H104.474C104.656 129.42 104.95 129.059 105.355 128.801C105.76 128.54 106.247 128.409 106.815 128.409C107.391 128.409 107.87 128.54 108.253 128.801C108.639 129.059 108.94 129.42 109.156 129.886H109.247C109.47 129.436 109.806 129.078 110.253 128.812C110.7 128.544 111.236 128.409 111.861 128.409C112.641 128.409 113.279 128.653 113.775 129.142C114.272 129.627 114.52 130.383 114.52 131.409V137.25H113.179V131.409C113.179 130.765 113.003 130.305 112.65 130.028C112.298 129.752 111.883 129.614 111.406 129.614C110.792 129.614 110.317 129.799 109.98 130.17C109.643 130.538 109.474 131.004 109.474 131.568V137.25H108.111V131.273C108.111 130.777 107.95 130.377 107.628 130.074C107.306 129.767 106.891 129.614 106.383 129.614C106.035 129.614 105.709 129.706 105.406 129.892C105.107 130.078 104.864 130.335 104.679 130.665C104.497 130.991 104.406 131.367 104.406 131.795V137.25H103.065ZM119.54 137.455C118.987 137.455 118.485 137.35 118.034 137.142C117.583 136.93 117.225 136.625 116.96 136.227C116.695 135.826 116.562 135.341 116.562 134.773C116.562 134.273 116.661 133.867 116.858 133.557C117.055 133.242 117.318 132.996 117.648 132.818C117.977 132.64 118.341 132.508 118.738 132.42C119.14 132.33 119.543 132.258 119.949 132.205C120.479 132.136 120.909 132.085 121.238 132.051C121.572 132.013 121.814 131.951 121.966 131.864C122.121 131.777 122.199 131.625 122.199 131.409V131.364C122.199 130.803 122.045 130.367 121.738 130.057C121.435 129.746 120.975 129.591 120.358 129.591C119.718 129.591 119.216 129.731 118.852 130.011C118.488 130.292 118.233 130.591 118.085 130.909L116.812 130.455C117.04 129.924 117.343 129.511 117.721 129.216C118.104 128.917 118.521 128.708 118.971 128.591C119.426 128.47 119.873 128.409 120.312 128.409C120.593 128.409 120.915 128.443 121.278 128.511C121.646 128.576 122 128.71 122.341 128.915C122.685 129.119 122.971 129.428 123.199 129.841C123.426 130.254 123.54 130.807 123.54 131.5V137.25H122.199V136.068H122.131C122.04 136.258 121.888 136.46 121.676 136.676C121.464 136.892 121.182 137.076 120.829 137.227C120.477 137.379 120.047 137.455 119.54 137.455ZM119.744 136.25C120.274 136.25 120.721 136.146 121.085 135.938C121.452 135.729 121.729 135.46 121.915 135.131C122.104 134.801 122.199 134.455 122.199 134.091V132.864C122.142 132.932 122.017 132.994 121.824 133.051C121.634 133.104 121.415 133.152 121.165 133.193C120.918 133.231 120.678 133.265 120.443 133.295C120.212 133.322 120.024 133.345 119.881 133.364C119.532 133.409 119.206 133.483 118.903 133.585C118.604 133.684 118.362 133.833 118.176 134.034C117.994 134.231 117.903 134.5 117.903 134.841C117.903 135.307 118.076 135.659 118.42 135.898C118.769 136.133 119.21 136.25 119.744 136.25ZM127.328 132V137.25H125.987V128.523H127.282V129.886H127.396C127.601 129.443 127.911 129.087 128.328 128.818C128.745 128.545 129.282 128.409 129.942 128.409C130.532 128.409 131.05 128.53 131.493 128.773C131.936 129.011 132.281 129.375 132.527 129.864C132.773 130.348 132.896 130.962 132.896 131.705V137.25H131.555V131.795C131.555 131.11 131.377 130.576 131.021 130.193C130.665 129.807 130.176 129.614 129.555 129.614C129.127 129.614 128.745 129.706 128.407 129.892C128.074 130.078 127.811 130.348 127.618 130.705C127.425 131.061 127.328 131.492 127.328 132ZM140.346 131.636V132.886H135.256V131.636H140.346ZM144.047 125.614V137.25H142.706V125.614H144.047ZM146.503 137.25V128.523H147.844V137.25H146.503ZM147.184 127.068C146.923 127.068 146.698 126.979 146.508 126.801C146.323 126.623 146.23 126.409 146.23 126.159C146.23 125.909 146.323 125.695 146.508 125.517C146.698 125.339 146.923 125.25 147.184 125.25C147.446 125.25 147.669 125.339 147.855 125.517C148.044 125.695 148.139 125.909 148.139 126.159C148.139 126.409 148.044 126.623 147.855 126.801C147.669 126.979 147.446 127.068 147.184 127.068ZM151.55 134.068L151.527 132.409H151.8L155.618 128.523H157.277L153.209 132.636H153.095L151.55 134.068ZM150.3 137.25V125.614H151.64V137.25H150.3ZM155.845 137.25L152.436 132.932L153.39 132L157.55 137.25H155.845ZM162.302 137.432C161.461 137.432 160.736 137.246 160.126 136.875C159.52 136.5 159.052 135.977 158.723 135.307C158.397 134.633 158.234 133.848 158.234 132.955C158.234 132.061 158.397 131.273 158.723 130.591C159.052 129.905 159.511 129.371 160.098 128.989C160.689 128.602 161.378 128.409 162.166 128.409C162.621 128.409 163.069 128.485 163.513 128.636C163.956 128.788 164.359 129.034 164.723 129.375C165.086 129.712 165.376 130.159 165.592 130.716C165.808 131.273 165.916 131.958 165.916 132.773V133.341H159.189V132.182H164.552C164.552 131.689 164.454 131.25 164.257 130.864C164.064 130.477 163.787 130.172 163.427 129.949C163.071 129.725 162.651 129.614 162.166 129.614C161.632 129.614 161.17 129.746 160.78 130.011C160.393 130.273 160.096 130.614 159.888 131.034C159.679 131.455 159.575 131.905 159.575 132.386V133.159C159.575 133.818 159.689 134.377 159.916 134.835C160.147 135.29 160.467 135.636 160.876 135.875C161.285 136.11 161.761 136.227 162.302 136.227C162.655 136.227 162.973 136.178 163.257 136.08C163.545 135.977 163.793 135.826 164.001 135.625C164.21 135.42 164.371 135.167 164.484 134.864L165.78 135.227C165.643 135.667 165.414 136.053 165.092 136.386C164.77 136.716 164.372 136.973 163.899 137.159C163.425 137.341 162.893 137.432 162.302 137.432Z" fill="white"/>
</svg>
