<svg width="238" height="238" viewBox="0 0 238 238" fill="none"
    xmlns="http://www.w3.org/2000/svg">
    <rect x="0.599609" y="0.599976" width="237.3" height="237.3" rx="12" fill="#443E3E"/>
    <path d="M51.6364 113.25H50.1591L54.4318 101.614H55.8864L60.1591 113.25H58.6818L55.2045 103.455H55.1136L51.6364 113.25ZM52.1818 108.705H58.1364V109.955H52.1818V108.705ZM67.8324 104.523L64.6051 113.25H63.2415L60.0142 104.523H61.4688L63.8778 111.477H63.9688L66.3778 104.523H67.8324ZM71.9048 113.455C71.3518 113.455 70.8499 113.35 70.3991 113.142C69.9484 112.93 69.5904 112.625 69.3253 112.227C69.0601 111.826 68.9276 111.341 68.9276 110.773C68.9276 110.273 69.026 109.867 69.223 109.557C69.42 109.242 69.6832 108.996 70.0128 108.818C70.3423 108.64 70.706 108.508 71.1037 108.42C71.5052 108.33 71.9086 108.258 72.3139 108.205C72.8442 108.136 73.2741 108.085 73.6037 108.051C73.937 108.013 74.1795 107.951 74.331 107.864C74.4863 107.777 74.5639 107.625 74.5639 107.409V107.364C74.5639 106.803 74.4105 106.367 74.1037 106.057C73.8007 105.746 73.3404 105.591 72.723 105.591C72.0829 105.591 71.581 105.731 71.2173 106.011C70.8537 106.292 70.598 106.591 70.4503 106.909L69.1776 106.455C69.4048 105.924 69.7079 105.511 70.0866 105.216C70.4692 104.917 70.8859 104.708 71.3366 104.591C71.7912 104.47 72.2382 104.409 72.6776 104.409C72.9579 104.409 73.2798 104.443 73.6435 104.511C74.0109 104.576 74.3651 104.71 74.706 104.915C75.0507 105.119 75.3366 105.428 75.5639 105.841C75.7912 106.254 75.9048 106.807 75.9048 107.5V113.25H74.5639V112.068H74.4957C74.4048 112.258 74.2533 112.46 74.0412 112.676C73.8291 112.892 73.5469 113.076 73.1946 113.227C72.8423 113.379 72.4124 113.455 71.9048 113.455ZM72.1094 112.25C72.6397 112.25 73.0866 112.146 73.4503 111.938C73.8177 111.729 74.0942 111.46 74.2798 111.131C74.4692 110.801 74.5639 110.455 74.5639 110.091V108.864C74.5071 108.932 74.3821 108.994 74.1889 109.051C73.9995 109.104 73.7798 109.152 73.5298 109.193C73.2836 109.231 73.0431 109.265 72.8082 109.295C72.5772 109.322 72.3897 109.345 72.2457 109.364C71.8973 109.409 71.5715 109.483 71.2685 109.585C70.9692 109.684 70.7268 109.833 70.5412 110.034C70.3594 110.231 70.2685 110.5 70.2685 110.841C70.2685 111.307 70.4408 111.659 70.7855 111.898C71.134 112.133 71.5753 112.25 72.1094 112.25ZM82.1477 104.523V105.659H77.625V104.523H82.1477ZM78.9432 102.432H80.2841V110.75C80.2841 111.129 80.339 111.413 80.4489 111.602C80.5625 111.788 80.7064 111.913 80.8807 111.977C81.0587 112.038 81.2462 112.068 81.4432 112.068C81.5909 112.068 81.7121 112.061 81.8068 112.045C81.9015 112.027 81.9773 112.011 82.0341 112L82.3068 113.205C82.2159 113.239 82.089 113.273 81.9261 113.307C81.7633 113.345 81.5568 113.364 81.3068 113.364C80.928 113.364 80.5568 113.282 80.1932 113.119C79.8333 112.956 79.5341 112.708 79.2955 112.375C79.0606 112.042 78.9432 111.621 78.9432 111.114V102.432ZM86.733 113.455C86.1799 113.455 85.678 113.35 85.2273 113.142C84.7765 112.93 84.4186 112.625 84.1534 112.227C83.8883 111.826 83.7557 111.341 83.7557 110.773C83.7557 110.273 83.8542 109.867 84.0511 109.557C84.2481 109.242 84.5114 108.996 84.8409 108.818C85.1705 108.64 85.5341 108.508 85.9318 108.42C86.3333 108.33 86.7367 108.258 87.142 108.205C87.6723 108.136 88.1023 108.085 88.4318 108.051C88.7652 108.013 89.0076 107.951 89.1591 107.864C89.3144 107.777 89.392 107.625 89.392 107.409V107.364C89.392 106.803 89.2386 106.367 88.9318 106.057C88.6288 105.746 88.1686 105.591 87.5511 105.591C86.911 105.591 86.4091 105.731 86.0455 106.011C85.6818 106.292 85.4261 106.591 85.2784 106.909L84.0057 106.455C84.233 105.924 84.536 105.511 84.9148 105.216C85.2973 104.917 85.714 104.708 86.1648 104.591C86.6193 104.47 87.0663 104.409 87.5057 104.409C87.786 104.409 88.108 104.443 88.4716 104.511C88.839 104.576 89.1932 104.71 89.5341 104.915C89.8788 105.119 90.1648 105.428 90.392 105.841C90.6193 106.254 90.733 106.807 90.733 107.5V113.25H89.392V112.068H89.3239C89.233 112.258 89.0814 112.46 88.8693 112.676C88.6572 112.892 88.375 113.076 88.0227 113.227C87.6705 113.379 87.2405 113.455 86.733 113.455ZM86.9375 112.25C87.4678 112.25 87.9148 112.146 88.2784 111.938C88.6458 111.729 88.9223 111.46 89.108 111.131C89.2973 110.801 89.392 110.455 89.392 110.091V108.864C89.3352 108.932 89.2102 108.994 89.017 109.051C88.8277 109.104 88.608 109.152 88.358 109.193C88.1117 109.231 87.8712 109.265 87.6364 109.295C87.4053 109.322 87.2178 109.345 87.0739 109.364C86.7254 109.409 86.3996 109.483 86.0966 109.585C85.7973 109.684 85.5549 109.833 85.3693 110.034C85.1875 110.231 85.0966 110.5 85.0966 110.841C85.0966 111.307 85.2689 111.659 85.6136 111.898C85.9621 112.133 86.4034 112.25 86.9375 112.25ZM93.1804 113.25V104.523H94.4759V105.841H94.5668C94.7259 105.409 95.0137 105.059 95.4304 104.79C95.8471 104.521 96.3168 104.386 96.8395 104.386C96.938 104.386 97.0611 104.388 97.2088 104.392C97.3565 104.396 97.4683 104.402 97.544 104.409V105.773C97.4986 105.761 97.3944 105.744 97.2315 105.722C97.0724 105.695 96.9039 105.682 96.7259 105.682C96.3016 105.682 95.9228 105.771 95.5895 105.949C95.2599 106.123 94.9986 106.366 94.8054 106.676C94.616 106.983 94.5213 107.333 94.5213 107.727V113.25H93.1804ZM105.315 106.477L104.111 106.818C104.035 106.617 103.923 106.422 103.776 106.233C103.632 106.04 103.435 105.881 103.185 105.756C102.935 105.631 102.615 105.568 102.224 105.568C101.69 105.568 101.245 105.691 100.889 105.938C100.537 106.18 100.361 106.489 100.361 106.864C100.361 107.197 100.482 107.46 100.724 107.653C100.967 107.847 101.346 108.008 101.861 108.136L103.156 108.455C103.937 108.644 104.518 108.934 104.901 109.324C105.283 109.71 105.474 110.208 105.474 110.818C105.474 111.318 105.33 111.765 105.043 112.159C104.759 112.553 104.361 112.864 103.849 113.091C103.338 113.318 102.743 113.432 102.065 113.432C101.175 113.432 100.438 113.239 99.8551 112.852C99.2718 112.466 98.9025 111.902 98.7472 111.159L100.02 110.841C100.141 111.311 100.37 111.663 100.707 111.898C101.048 112.133 101.493 112.25 102.043 112.25C102.668 112.25 103.164 112.117 103.531 111.852C103.902 111.583 104.088 111.261 104.088 110.886C104.088 110.583 103.982 110.33 103.77 110.125C103.558 109.917 103.232 109.761 102.793 109.659L101.338 109.318C100.539 109.129 99.9517 108.835 99.5767 108.438C99.2055 108.036 99.0199 107.534 99.0199 106.932C99.0199 106.439 99.1581 106.004 99.4347 105.625C99.715 105.246 100.096 104.949 100.577 104.733C101.062 104.517 101.611 104.409 102.224 104.409C103.088 104.409 103.766 104.598 104.259 104.977C104.755 105.356 105.107 105.856 105.315 106.477ZM58.6818 132.068L51.3636 135.795V134.341L56.9773 131.636L56.9318 131.727V131.5L56.9773 131.591L51.3636 128.886V127.432L58.6818 131.159V132.068ZM61.706 137.25V125.614H65.6378C66.5469 125.614 67.2931 125.769 67.8764 126.08C68.4598 126.386 68.8916 126.809 69.1719 127.347C69.4522 127.884 69.5923 128.496 69.5923 129.182C69.5923 129.867 69.4522 130.475 69.1719 131.006C68.8916 131.536 68.4616 131.953 67.8821 132.256C67.3026 132.555 66.562 132.705 65.6605 132.705H62.4787V131.432H65.6151C66.2363 131.432 66.7363 131.341 67.1151 131.159C67.4976 130.977 67.7741 130.72 67.9446 130.386C68.1188 130.049 68.206 129.648 68.206 129.182C68.206 128.716 68.1188 128.309 67.9446 127.96C67.7704 127.612 67.492 127.343 67.1094 127.153C66.7268 126.96 66.2211 126.864 65.5923 126.864H63.1151V137.25H61.706ZM67.1832 132.023L70.0469 137.25H68.4105L65.5923 132.023H67.1832ZM75.2102 137.432C74.4223 137.432 73.7311 137.244 73.1364 136.869C72.5455 136.494 72.0833 135.97 71.75 135.295C71.4205 134.621 71.2557 133.833 71.2557 132.932C71.2557 132.023 71.4205 131.229 71.75 130.551C72.0833 129.873 72.5455 129.347 73.1364 128.972C73.7311 128.597 74.4223 128.409 75.2102 128.409C75.9981 128.409 76.6875 128.597 77.2784 128.972C77.8731 129.347 78.3352 129.873 78.6648 130.551C78.9981 131.229 79.1648 132.023 79.1648 132.932C79.1648 133.833 78.9981 134.621 78.6648 135.295C78.3352 135.97 77.8731 136.494 77.2784 136.869C76.6875 137.244 75.9981 137.432 75.2102 137.432ZM75.2102 136.227C75.8087 136.227 76.3011 136.074 76.6875 135.767C77.0739 135.46 77.3598 135.057 77.5455 134.557C77.7311 134.057 77.8239 133.515 77.8239 132.932C77.8239 132.348 77.7311 131.805 77.5455 131.301C77.3598 130.797 77.0739 130.39 76.6875 130.08C76.3011 129.769 75.8087 129.614 75.2102 129.614C74.6117 129.614 74.1193 129.769 73.733 130.08C73.3466 130.39 73.0606 130.797 72.875 131.301C72.6894 131.805 72.5966 132.348 72.5966 132.932C72.5966 133.515 72.6894 134.057 72.875 134.557C73.0606 135.057 73.3466 135.46 73.733 135.767C74.1193 136.074 74.6117 136.227 75.2102 136.227ZM81.3935 137.25V125.614H82.7344V129.909H82.848C82.9465 129.758 83.0829 129.564 83.2571 129.33C83.4351 129.091 83.6889 128.879 84.0185 128.693C84.3518 128.504 84.8026 128.409 85.3707 128.409C86.1056 128.409 86.7533 128.593 87.3139 128.96C87.8745 129.328 88.312 129.848 88.6264 130.523C88.9408 131.197 89.098 131.992 89.098 132.909C89.098 133.833 88.9408 134.634 88.6264 135.312C88.312 135.987 87.8764 136.509 87.3196 136.881C86.7628 137.248 86.1207 137.432 85.3935 137.432C84.8329 137.432 84.384 137.339 84.0469 137.153C83.7098 136.964 83.4503 136.75 83.2685 136.511C83.0866 136.269 82.9465 136.068 82.848 135.909H82.6889V137.25H81.3935ZM82.7116 132.886C82.7116 133.545 82.8082 134.127 83.0014 134.631C83.1946 135.131 83.4768 135.523 83.848 135.807C84.2192 136.087 84.6738 136.227 85.2116 136.227C85.7723 136.227 86.2401 136.08 86.6151 135.784C86.9938 135.485 87.2779 135.083 87.4673 134.58C87.6605 134.072 87.7571 133.508 87.7571 132.886C87.7571 132.273 87.6624 131.72 87.473 131.227C87.2874 130.731 87.0052 130.339 86.6264 130.051C86.2514 129.759 85.7798 129.614 85.2116 129.614C84.6662 129.614 84.2079 129.752 83.8366 130.028C83.4654 130.301 83.1851 130.684 82.9957 131.176C82.8063 131.665 82.7116 132.235 82.7116 132.886ZM94.6946 137.432C93.9067 137.432 93.2154 137.244 92.6207 136.869C92.0298 136.494 91.5677 135.97 91.2344 135.295C90.9048 134.621 90.7401 133.833 90.7401 132.932C90.7401 132.023 90.9048 131.229 91.2344 130.551C91.5677 129.873 92.0298 129.347 92.6207 128.972C93.2154 128.597 93.9067 128.409 94.6946 128.409C95.4825 128.409 96.1719 128.597 96.7628 128.972C97.3575 129.347 97.8196 129.873 98.1491 130.551C98.4825 131.229 98.6491 132.023 98.6491 132.932C98.6491 133.833 98.4825 134.621 98.1491 135.295C97.8196 135.97 97.3575 136.494 96.7628 136.869C96.1719 137.244 95.4825 137.432 94.6946 137.432ZM94.6946 136.227C95.2931 136.227 95.7855 136.074 96.1719 135.767C96.5582 135.46 96.8442 135.057 97.0298 134.557C97.2154 134.057 97.3082 133.515 97.3082 132.932C97.3082 132.348 97.2154 131.805 97.0298 131.301C96.8442 130.797 96.5582 130.39 96.1719 130.08C95.7855 129.769 95.2931 129.614 94.6946 129.614C94.0961 129.614 93.6037 129.769 93.2173 130.08C92.831 130.39 92.545 130.797 92.3594 131.301C92.1738 131.805 92.081 132.348 92.081 132.932C92.081 133.515 92.1738 134.057 92.3594 134.557C92.545 135.057 92.831 135.46 93.2173 135.767C93.6037 136.074 94.0961 136.227 94.6946 136.227ZM104.491 128.523V129.659H99.9688V128.523H104.491ZM101.287 126.432H102.628V134.75C102.628 135.129 102.683 135.413 102.793 135.602C102.906 135.788 103.05 135.913 103.224 135.977C103.402 136.038 103.59 136.068 103.787 136.068C103.935 136.068 104.056 136.061 104.151 136.045C104.245 136.027 104.321 136.011 104.378 136L104.651 137.205C104.56 137.239 104.433 137.273 104.27 137.307C104.107 137.345 103.901 137.364 103.651 137.364C103.272 137.364 102.901 137.282 102.537 137.119C102.177 136.956 101.878 136.708 101.639 136.375C101.404 136.042 101.287 135.621 101.287 135.114V126.432ZM114.304 137.409C113.539 137.409 112.88 137.269 112.327 136.989C111.774 136.708 111.348 136.324 111.048 135.835C110.749 135.347 110.599 134.788 110.599 134.159C110.599 133.674 110.702 133.244 110.906 132.869C111.115 132.491 111.401 132.14 111.764 131.818C112.132 131.492 112.554 131.167 113.031 130.841L114.713 129.591C115.043 129.375 115.306 129.144 115.503 128.898C115.704 128.652 115.804 128.33 115.804 127.932C115.804 127.636 115.673 127.35 115.412 127.074C115.154 126.797 114.815 126.659 114.395 126.659C114.099 126.659 113.838 126.735 113.611 126.886C113.387 127.034 113.211 127.223 113.082 127.455C112.957 127.682 112.895 127.917 112.895 128.159C112.895 128.432 112.969 128.708 113.116 128.989C113.268 129.265 113.459 129.549 113.69 129.841C113.925 130.129 114.168 130.424 114.418 130.727L119.759 137.25H118.145L113.736 131.932C113.327 131.439 112.955 130.992 112.622 130.591C112.289 130.189 112.024 129.794 111.827 129.403C111.63 129.013 111.531 128.591 111.531 128.136C111.531 127.614 111.647 127.155 111.878 126.761C112.113 126.364 112.44 126.055 112.861 125.835C113.285 125.612 113.781 125.5 114.349 125.5C114.933 125.5 115.435 125.614 115.855 125.841C116.276 126.064 116.599 126.362 116.827 126.733C117.054 127.1 117.168 127.5 117.168 127.932C117.168 128.489 117.029 128.972 116.753 129.381C116.476 129.79 116.099 130.17 115.622 130.523L113.304 132.25C112.781 132.636 112.427 133.011 112.241 133.375C112.056 133.739 111.963 134 111.963 134.159C111.963 134.523 112.058 134.862 112.247 135.176C112.437 135.491 112.704 135.744 113.048 135.938C113.393 136.131 113.796 136.227 114.259 136.227C114.698 136.227 115.126 136.134 115.543 135.949C115.959 135.759 116.336 135.487 116.673 135.131C117.014 134.775 117.283 134.347 117.48 133.847C117.681 133.347 117.781 132.784 117.781 132.159H119.077C119.077 132.932 118.988 133.562 118.81 134.051C118.632 134.54 118.431 134.922 118.207 135.199C117.984 135.475 117.804 135.682 117.668 135.818C117.622 135.875 117.58 135.932 117.543 135.989C117.505 136.045 117.463 136.102 117.418 136.159C117.043 136.58 116.569 136.894 115.997 137.102C115.425 137.307 114.861 137.409 114.304 137.409ZM135.288 129.25H133.879C133.796 128.845 133.65 128.489 133.442 128.182C133.237 127.875 132.987 127.617 132.692 127.409C132.4 127.197 132.076 127.038 131.72 126.932C131.364 126.826 130.993 126.773 130.607 126.773C129.902 126.773 129.264 126.951 128.692 127.307C128.124 127.663 127.671 128.188 127.334 128.881C127 129.574 126.834 130.424 126.834 131.432C126.834 132.439 127 133.29 127.334 133.983C127.671 134.676 128.124 135.201 128.692 135.557C129.264 135.913 129.902 136.091 130.607 136.091C130.993 136.091 131.364 136.038 131.72 135.932C132.076 135.826 132.4 135.669 132.692 135.46C132.987 135.248 133.237 134.989 133.442 134.682C133.65 134.371 133.796 134.015 133.879 133.614H135.288C135.182 134.208 134.989 134.741 134.709 135.21C134.429 135.68 134.08 136.08 133.663 136.409C133.247 136.735 132.779 136.983 132.26 137.153C131.745 137.324 131.194 137.409 130.607 137.409C129.614 137.409 128.732 137.167 127.959 136.682C127.186 136.197 126.578 135.508 126.135 134.614C125.692 133.72 125.47 132.659 125.47 131.432C125.47 130.205 125.692 129.144 126.135 128.25C126.578 127.356 127.186 126.667 127.959 126.182C128.732 125.697 129.614 125.455 130.607 125.455C131.194 125.455 131.745 125.54 132.26 125.71C132.779 125.881 133.247 126.131 133.663 126.46C134.08 126.786 134.429 127.184 134.709 127.653C134.989 128.119 135.182 128.652 135.288 129.25ZM138.247 140.523C138.02 140.523 137.817 140.504 137.639 140.466C137.461 140.432 137.338 140.398 137.27 140.364L137.611 139.182C137.937 139.265 138.224 139.295 138.474 139.273C138.724 139.25 138.946 139.138 139.139 138.938C139.336 138.741 139.516 138.42 139.679 137.977L139.929 137.295L136.702 128.523H138.156L140.565 135.477H140.656L143.065 128.523H144.52L140.815 138.523C140.649 138.973 140.442 139.347 140.196 139.642C139.95 139.941 139.664 140.163 139.338 140.307C139.016 140.451 138.652 140.523 138.247 140.523ZM146.472 137.25V125.614H147.812V129.909H147.926C148.025 129.758 148.161 129.564 148.335 129.33C148.513 129.091 148.767 128.879 149.097 128.693C149.43 128.504 149.881 128.409 150.449 128.409C151.184 128.409 151.831 128.593 152.392 128.96C152.953 129.328 153.39 129.848 153.705 130.523C154.019 131.197 154.176 131.992 154.176 132.909C154.176 133.833 154.019 134.634 153.705 135.312C153.39 135.987 152.955 136.509 152.398 136.881C151.841 137.248 151.199 137.432 150.472 137.432C149.911 137.432 149.462 137.339 149.125 137.153C148.788 136.964 148.528 136.75 148.347 136.511C148.165 136.269 148.025 136.068 147.926 135.909H147.767V137.25H146.472ZM147.79 132.886C147.79 133.545 147.886 134.127 148.08 134.631C148.273 135.131 148.555 135.523 148.926 135.807C149.297 136.087 149.752 136.227 150.29 136.227C150.85 136.227 151.318 136.08 151.693 135.784C152.072 135.485 152.356 135.083 152.545 134.58C152.739 134.072 152.835 133.508 152.835 132.886C152.835 132.273 152.741 131.72 152.551 131.227C152.366 130.731 152.083 130.339 151.705 130.051C151.33 129.759 150.858 129.614 150.29 129.614C149.744 129.614 149.286 129.752 148.915 130.028C148.544 130.301 148.263 130.684 148.074 131.176C147.884 131.665 147.79 132.235 147.79 132.886ZM159.773 137.432C158.985 137.432 158.294 137.244 157.699 136.869C157.108 136.494 156.646 135.97 156.312 135.295C155.983 134.621 155.818 133.833 155.818 132.932C155.818 132.023 155.983 131.229 156.312 130.551C156.646 129.873 157.108 129.347 157.699 128.972C158.294 128.597 158.985 128.409 159.773 128.409C160.561 128.409 161.25 128.597 161.841 128.972C162.436 129.347 162.898 129.873 163.227 130.551C163.561 131.229 163.727 132.023 163.727 132.932C163.727 133.833 163.561 134.621 163.227 135.295C162.898 135.97 162.436 136.494 161.841 136.869C161.25 137.244 160.561 137.432 159.773 137.432ZM159.773 136.227C160.371 136.227 160.864 136.074 161.25 135.767C161.636 135.46 161.922 135.057 162.108 134.557C162.294 134.057 162.386 133.515 162.386 132.932C162.386 132.348 162.294 131.805 162.108 131.301C161.922 130.797 161.636 130.39 161.25 130.08C160.864 129.769 160.371 129.614 159.773 129.614C159.174 129.614 158.682 129.769 158.295 130.08C157.909 130.39 157.623 130.797 157.438 131.301C157.252 131.805 157.159 132.348 157.159 132.932C157.159 133.515 157.252 134.057 157.438 134.557C157.623 135.057 157.909 135.46 158.295 135.767C158.682 136.074 159.174 136.227 159.773 136.227ZM165.774 137.25V128.523H167.07V129.841H167.161C167.32 129.409 167.607 129.059 168.024 128.79C168.441 128.521 168.911 128.386 169.433 128.386C169.532 128.386 169.655 128.388 169.803 128.392C169.95 128.396 170.062 128.402 170.138 128.409V129.773C170.092 129.761 169.988 129.744 169.825 129.722C169.666 129.695 169.498 129.682 169.32 129.682C168.895 129.682 168.517 129.771 168.183 129.949C167.854 130.123 167.592 130.366 167.399 130.676C167.21 130.983 167.115 131.333 167.115 131.727V137.25H165.774ZM174.984 140.705C174.337 140.705 173.78 140.621 173.314 140.455C172.848 140.292 172.46 140.076 172.149 139.807C171.842 139.542 171.598 139.258 171.416 138.955L172.484 138.205C172.606 138.364 172.759 138.545 172.945 138.75C173.13 138.958 173.384 139.138 173.706 139.29C174.032 139.445 174.458 139.523 174.984 139.523C175.689 139.523 176.27 139.352 176.729 139.011C177.187 138.67 177.416 138.136 177.416 137.409V135.636H177.303C177.204 135.795 177.064 135.992 176.882 136.227C176.704 136.458 176.446 136.665 176.109 136.847C175.776 137.025 175.325 137.114 174.757 137.114C174.053 137.114 173.42 136.947 172.859 136.614C172.303 136.28 171.861 135.795 171.536 135.159C171.214 134.523 171.053 133.75 171.053 132.841C171.053 131.947 171.21 131.169 171.524 130.506C171.839 129.839 172.276 129.324 172.837 128.96C173.397 128.593 174.045 128.409 174.78 128.409C175.348 128.409 175.799 128.504 176.132 128.693C176.469 128.879 176.727 129.091 176.905 129.33C177.087 129.564 177.227 129.758 177.325 129.909H177.462V128.523H178.757V137.5C178.757 138.25 178.587 138.86 178.246 139.33C177.909 139.803 177.454 140.15 176.882 140.369C176.314 140.593 175.681 140.705 174.984 140.705ZM174.939 135.909C175.477 135.909 175.931 135.786 176.303 135.54C176.674 135.294 176.956 134.939 177.149 134.477C177.342 134.015 177.439 133.462 177.439 132.818C177.439 132.189 177.344 131.634 177.155 131.153C176.965 130.672 176.685 130.295 176.314 130.023C175.943 129.75 175.484 129.614 174.939 129.614C174.371 129.614 173.897 129.758 173.518 130.045C173.143 130.333 172.861 130.72 172.672 131.205C172.486 131.689 172.393 132.227 172.393 132.818C172.393 133.424 172.488 133.96 172.678 134.426C172.871 134.888 173.155 135.252 173.53 135.517C173.909 135.778 174.378 135.909 174.939 135.909ZM187.393 130.477L186.189 130.818C186.113 130.617 186.001 130.422 185.854 130.233C185.71 130.04 185.513 129.881 185.263 129.756C185.013 129.631 184.693 129.568 184.303 129.568C183.768 129.568 183.323 129.691 182.967 129.938C182.615 130.18 182.439 130.489 182.439 130.864C182.439 131.197 182.56 131.46 182.803 131.653C183.045 131.847 183.424 132.008 183.939 132.136L185.234 132.455C186.015 132.644 186.596 132.934 186.979 133.324C187.361 133.71 187.553 134.208 187.553 134.818C187.553 135.318 187.409 135.765 187.121 136.159C186.837 136.553 186.439 136.864 185.928 137.091C185.416 137.318 184.821 137.432 184.143 137.432C183.253 137.432 182.517 137.239 181.933 136.852C181.35 136.466 180.981 135.902 180.825 135.159L182.098 134.841C182.219 135.311 182.448 135.663 182.786 135.898C183.126 136.133 183.571 136.25 184.121 136.25C184.746 136.25 185.242 136.117 185.609 135.852C185.981 135.583 186.166 135.261 186.166 134.886C186.166 134.583 186.06 134.33 185.848 134.125C185.636 133.917 185.31 133.761 184.871 133.659L183.416 133.318C182.617 133.129 182.03 132.835 181.655 132.438C181.284 132.036 181.098 131.534 181.098 130.932C181.098 130.439 181.236 130.004 181.513 129.625C181.793 129.246 182.174 128.949 182.655 128.733C183.14 128.517 183.689 128.409 184.303 128.409C185.166 128.409 185.844 128.598 186.337 128.977C186.833 129.356 187.185 129.856 187.393 130.477Z" fill="white"/>
</svg>
