<svg width="48" height="48" viewBox="0 0 48 48" fill="none"
    xmlns="http://www.w3.org/2000/svg">
    <rect x="0.5" y="0.5" width="47" height="47" rx="23.5" stroke="#F1F1F1"/>
    <g clip-path="url(#clip0_5_11585)">
        <path d="M28.425 24.998C29.175 24.998 29.835 24.588 30.175 23.968L33.755 17.478C34.125 16.818 33.645 15.998 32.885 15.998H18.085L17.145 13.998H13.875V15.998H15.875L19.475 23.588L18.125 26.028C17.395 27.368 18.355 28.998 19.875 28.998H31.875V26.998H19.875L20.975 24.998H28.425ZM19.035 17.998H31.185L28.425 22.998H21.405L19.035 17.998ZM19.875 29.998C18.775 29.998 17.885 30.898 17.885 31.998C17.885 33.098 18.775 33.998 19.875 33.998C20.975 33.998 21.875 33.098 21.875 31.998C21.875 30.898 20.975 29.998 19.875 29.998ZM29.875 29.998C28.775 29.998 27.885 30.898 27.885 31.998C27.885 33.098 28.775 33.998 29.875 33.998C30.975 33.998 31.875 33.098 31.875 31.998C31.875 30.898 30.975 29.998 29.875 29.998Z" fill="white"/>
    </g>
    <defs>
        <clipPath id="clip0_5_11585">
            <rect width="24" height="24" fill="white" transform="translate(12 12)"/>
        </clipPath>
    </defs>
</svg>
