<svg width="78" height="48" viewBox="0 0 78 48" fill="none"
    xmlns="http://www.w3.org/2000/svg">
    <rect x="0.5" y="0.5" width="77" height="47" rx="23.5" stroke="#F1F1F1"/>
    <path d="M11.3335 19H24.6668M11.3335 24H24.6668M11.3335 29H24.6668" stroke="#F1F1F1" stroke-width="2" stroke-linecap="round" stroke-linejoin="round"/>
    <g clip-path="url(#clip0_1_4401)">
        <path d="M53.9998 10.6666C46.6398 10.6666 40.6665 16.64 40.6665 24C40.6665 31.36 46.6398 37.3333 53.9998 37.3333C61.3598 37.3333 67.3332 31.36 67.3332 24C67.3332 16.64 61.3598 10.6666 53.9998 10.6666ZM53.9998 14.6666C56.2132 14.6666 57.9998 16.4533 57.9998 18.6666C57.9998 20.88 56.2132 22.6666 53.9998 22.6666C51.7865 22.6666 49.9998 20.88 49.9998 18.6666C49.9998 16.4533 51.7865 14.6666 53.9998 14.6666ZM53.9998 33.6C50.6665 33.6 47.7198 31.8933 45.9998 29.3066C46.0398 26.6533 51.3332 25.2 53.9998 25.2C56.6532 25.2 61.9598 26.6533 61.9998 29.3066C60.2798 31.8933 57.3332 33.6 53.9998 33.6Z" fill="#F1F1F1"/>
    </g>
    <defs>
        <clipPath id="clip0_1_4401">
            <rect width="32" height="32" fill="white" transform="translate(38 8)"/>
        </clipPath>
    </defs>
</svg>
